<svg width="170" height="40" viewBox="0 0 170 40" fill="none" xmlns="http://www.w3.org/2000/svg">
<g clip-path="url(#clip0_538_15716)">
<path d="M49.5039 28.093H61.6706V24.5808H53.8282V11.3516H49.5039V28.093Z" fill="#03352C"/>
<path d="M68.8788 25.752C67.1442 25.752 66.2402 24.3003 66.2402 22.1227C66.2402 19.9451 67.1442 18.47 68.8788 18.47C70.6134 18.47 71.5418 19.9451 71.5418 22.1227C71.5418 24.3003 70.6134 25.752 68.8788 25.752ZM68.9032 28.4681C72.9344 28.4681 75.5729 25.7286 75.5729 22.1227C75.5729 18.5169 72.9344 15.7773 68.9032 15.7773C64.8965 15.7773 62.2091 18.5169 62.2091 22.1227C62.2091 25.7286 64.8965 28.4681 68.9032 28.4681Z" fill="#03352C"/>
<path d="M82.5504 32.2339C84.4071 32.2339 86.044 31.8359 87.1434 30.8993C88.1451 30.0329 88.8047 28.7217 88.8047 26.9188V16.1012H84.9935V17.389H84.9446C84.2117 16.3822 83.0878 15.75 81.4265 15.75C78.3238 15.75 76.1738 18.232 76.1738 21.7441C76.1738 25.4202 78.788 27.4339 81.5975 27.4339C83.1123 27.4339 84.0651 26.8485 84.798 26.0524H84.8957V27.2466C84.8957 28.6983 84.1872 29.5412 82.5015 29.5412C81.1822 29.5412 80.5226 29.0027 80.3027 28.3705H76.4426C76.8335 30.8759 79.1056 32.2339 82.5504 32.2339ZM82.5259 24.6007C81.0356 24.6007 80.0584 23.43 80.0584 21.6271C80.0584 19.8007 81.0356 18.63 82.5259 18.63C84.1872 18.63 85.0668 19.988 85.0668 21.6037C85.0668 23.2895 84.2605 24.6007 82.5259 24.6007Z" fill="#03352C"/>
<path d="M96.6422 25.752C94.9076 25.752 94.0037 24.3003 94.0037 22.1227C94.0037 19.9451 94.9076 18.47 96.6422 18.47C98.3768 18.47 99.3052 19.9451 99.3052 22.1227C99.3052 24.3003 98.3768 25.752 96.6422 25.752ZM96.6667 28.4681C100.698 28.4681 103.337 25.7286 103.337 22.1227C103.337 18.5169 100.698 15.7773 96.6667 15.7773C92.66 15.7773 89.9725 18.5169 89.9725 22.1227C89.9725 25.7286 92.66 28.4681 96.6667 28.4681Z" fill="#03352C"/>
<path d="M104.5 28.093H108.482V16.1047H104.5V28.093ZM104.5 14.4423H108.482V11.3516H104.5V14.4423Z" fill="#03352C"/>
<path d="M110.209 32.0466H114.191V26.8485H114.24C115.022 27.8554 116.17 28.4641 117.783 28.4641C121.056 28.4641 123.231 25.9822 123.231 22.0954C123.231 18.4895 121.203 15.75 117.88 15.75C116.17 15.75 114.949 16.4759 114.094 17.5529H114.02V16.1012H110.209V32.0466ZM116.757 25.5139C115.046 25.5139 114.069 24.1793 114.069 22.2359C114.069 20.2924 114.949 18.8173 116.683 18.8173C118.393 18.8173 119.2 20.1754 119.2 22.2359C119.2 24.2729 118.271 25.5139 116.757 25.5139Z" fill="#03352C"/>
<path d="M129.714 28.4641C132.988 28.4641 135.407 27.1061 135.407 24.4837C135.407 21.4163 132.817 20.8778 130.618 20.5266C129.03 20.2456 127.613 20.1285 127.613 19.2856C127.613 18.5363 128.371 18.1851 129.348 18.1851C130.447 18.1851 131.205 18.5129 131.351 19.59H135.016C134.82 17.2251 132.915 15.75 129.372 15.75C126.416 15.75 123.973 17.0612 123.973 19.59C123.973 22.3998 126.294 22.9617 128.468 23.3129C130.13 23.5939 131.644 23.711 131.644 24.788C131.644 25.5607 130.887 25.9822 129.69 25.9822C128.371 25.9822 127.54 25.3968 127.393 24.2027H123.631C123.753 26.8485 126.05 28.4641 129.714 28.4641Z" fill="#03352C"/>
<path d="M140.818 28.4411C142.552 28.4411 143.652 27.7855 144.555 26.6147H144.629V28.0899H148.44V16.1016H144.458V22.7981C144.458 24.2264 143.627 25.2099 142.259 25.2099C140.989 25.2099 140.378 24.484 140.378 23.1728V16.1016H136.42V23.9689C136.42 26.6381 137.935 28.4411 140.818 28.4411Z" fill="#03352C"/>
<path d="M150.172 28.0895H154.154V21.3695C154.154 19.9412 154.887 18.9344 156.133 18.9344C157.33 18.9344 157.892 19.6837 157.892 20.9715V28.0895H161.874V21.3695C161.874 19.9412 162.583 18.9344 163.853 18.9344C165.05 18.9344 165.612 19.6837 165.612 20.9715V28.0895H169.595V20.2924C169.595 17.5998 168.178 15.75 165.344 15.75C163.731 15.75 162.387 16.4056 161.41 17.8573H161.361C160.726 16.5695 159.48 15.75 157.843 15.75C156.035 15.75 154.838 16.5695 154.056 17.8105H153.983V16.1012H150.172V28.0895Z" fill="#03352C"/>
<path fill-rule="evenodd" clip-rule="evenodd" d="M8.80989 3.79917C7.35353 4.77514 6.03659 5.92904 4.89336 7.22798C9.56511 6.81231 15.5004 7.49106 22.3912 10.7931C29.7496 14.3192 35.675 14.4384 39.7988 13.6761C39.4246 12.5903 38.9535 11.5468 38.3955 10.5548C33.6749 11.032 27.6231 10.4004 20.5703 7.02075C16.0916 4.8746 12.1438 3.99053 8.80989 3.79917ZM35.638 6.79311C31.9101 2.80125 26.4926 0.289062 20.4628 0.289062C18.692 0.289062 16.9739 0.505752 15.336 0.912945C17.5543 1.49305 19.9109 2.34173 22.3912 3.5303C27.5549 6.0047 32.013 6.80141 35.638 6.79311ZM40.6804 17.4872C35.6985 18.43 28.819 18.2364 20.5703 14.2836C12.8586 10.5882 6.72072 10.6347 2.58114 11.5164C2.36747 11.5618 2.15883 11.6096 1.95522 11.6594C1.41325 12.789 0.980628 13.9769 0.670218 15.2105C1.00175 15.1256 1.34434 15.0449 1.69781 14.9696C6.71984 13.9001 13.8156 13.9465 22.3912 18.056C30.103 21.7514 36.2408 21.7048 40.3804 20.8232C40.5222 20.793 40.662 20.7618 40.7994 20.7296C40.8145 20.422 40.822 20.1125 40.822 19.8012C40.822 19.0183 40.774 18.2461 40.6804 17.4872ZM40.1347 24.8474C35.2011 25.674 28.522 25.3567 20.5703 21.5464C12.8586 17.851 6.72072 17.8975 2.58114 18.7792C1.66227 18.9748 0.835675 19.2131 0.106498 19.4647C0.10451 19.5766 0.103516 19.6888 0.103516 19.8012C0.103516 30.5775 9.21866 39.3134 20.4628 39.3134C29.8862 39.3134 37.8143 33.1777 40.1347 24.8474Z" fill="#FAD459"/>
</g>
<defs>
<clipPath id="clip0_538_15716">
<rect width="170" height="40" fill="white"/>
</clipPath>
</defs>
</svg>
