<svg width="170" height="37" viewBox="0 0 170 37" fill="none" xmlns="http://www.w3.org/2000/svg">
<g clip-path="url(#clip0_538_15685)">
<path fill-rule="evenodd" clip-rule="evenodd" d="M21.5073 10.8089C20.1233 9.79251 18.4962 9.25 16.8317 9.25V0C20.1607 0 23.4149 1.08501 26.1829 3.11781C28.9508 5.15061 31.1081 8.03992 32.3821 11.4203C33.656 14.8007 33.9894 18.5205 33.3399 22.1092C32.6905 25.6978 31.0874 28.9942 28.7335 31.5814C26.3795 34.1688 23.3804 35.9307 20.1154 36.6445C16.8504 37.3583 13.466 36.992 10.3905 35.5918C7.31488 34.1915 4.68613 31.8204 2.83665 28.778C0.987161 25.7357 0 22.1589 0 18.5H8.41584C8.41584 20.3295 8.90943 22.1179 9.83416 23.639C10.7589 25.1602 12.0733 26.3458 13.6111 27.0459C15.1489 27.746 16.841 27.9292 18.4735 27.5722C20.106 27.2154 21.6056 26.3344 22.7826 25.0408C23.9596 23.7471 24.7611 22.0989 25.0858 20.3046C25.4105 18.5103 25.2439 16.6504 24.6069 14.9602C23.9699 13.27 22.8913 11.8253 21.5073 10.8089Z" fill="#FAD459"/>
<path fill-rule="evenodd" clip-rule="evenodd" d="M8.41584 4.88856e-06C8.41584 1.21473 8.19816 2.41756 7.77522 3.53983C7.35228 4.66209 6.73238 5.6818 5.9509 6.54074C5.16942 7.39969 4.24166 8.08103 3.2206 8.54589C2.19954 9.01074 1.10518 9.25 3.67865e-07 9.25L0 18.5C2.21037 18.5 4.39909 18.0215 6.44121 17.0918C8.48333 16.1621 10.3389 14.7994 11.9018 13.0814C13.4648 11.3636 14.7046 9.32419 15.5505 7.07965C16.3963 4.83512 16.8317 2.42945 16.8317 0L8.41584 4.88856e-06Z" fill="#FAD459"/>
<path d="M105.719 13.3672H101.636V27.6236H105.719V13.3672Z" fill="#03352C"/>
<path d="M102.09 10.7007C102.517 11.17 103.05 11.4047 103.691 11.4047C104.331 11.4047 104.856 11.17 105.265 10.7007C105.675 10.2118 105.88 9.62508 105.88 8.94062C105.88 8.23662 105.675 7.64992 105.265 7.18059C104.856 6.71123 104.331 6.47656 103.691 6.47656C103.05 6.47656 102.517 6.71123 102.09 7.18059C101.68 7.64992 101.476 8.23662 101.476 8.94062C101.476 9.62508 101.68 10.2118 102.09 10.7007Z" fill="#03352C"/>
<path d="M43.0527 27.624V6.91406H47.2429V23.5759H55.5965V27.624H43.0527Z" fill="#03352C"/>
<path fill-rule="evenodd" clip-rule="evenodd" d="M63.1421 27.9486C61.8077 27.9486 60.5979 27.626 59.5125 26.9806C58.4449 26.3157 57.5998 25.4162 56.977 24.2818C56.3543 23.1476 56.043 21.8765 56.043 20.4684C56.043 19.0604 56.3543 17.7991 56.977 16.6843C57.5998 15.5696 58.4449 14.6896 59.5125 14.0443C60.58 13.3793 61.79 13.0469 63.1421 13.0469C64.4944 13.0469 65.7043 13.3696 66.7718 14.0149C67.8394 14.6603 68.6846 15.5501 69.3073 16.6843C69.93 17.7991 70.2414 19.0604 70.2414 20.4684C70.2414 21.8765 69.93 23.1476 69.3073 24.2818C68.6846 25.4162 67.8394 26.3157 66.7718 26.9806C65.7043 27.626 64.4944 27.9486 63.1421 27.9486ZM63.1421 23.8712C63.7293 23.8712 64.2453 23.7343 64.6902 23.4605C65.1349 23.1672 65.473 22.7663 65.7043 22.2578C65.9534 21.7298 66.0779 21.1333 66.0779 20.4684C66.0779 19.8035 65.9534 19.2266 65.7043 18.7378C65.4552 18.2293 65.1083 17.8382 64.6634 17.5644C64.2364 17.271 63.7293 17.1244 63.1421 17.1244C62.5728 17.1244 62.0658 17.271 61.6209 17.5644C61.1761 17.8382 60.8291 18.2293 60.58 18.7378C60.3309 19.2462 60.2065 19.8329 60.2065 20.4978C60.2065 21.1431 60.3309 21.7298 60.58 22.2578C60.8291 22.7663 61.1761 23.1672 61.6209 23.4605C62.0658 23.7343 62.5728 23.8712 63.1421 23.8712Z" fill="#03352C"/>
<path fill-rule="evenodd" clip-rule="evenodd" d="M73.4745 33.2014C74.5598 33.7489 75.8142 34.0227 77.2377 34.0227C78.6255 34.0227 79.8621 33.7196 80.9474 33.1133C82.0328 32.5071 82.8867 31.6663 83.5095 30.5907C84.1322 29.5151 84.444 28.244 84.444 26.7772V13.3715H80.4403V14.3294C80.1425 14.0539 79.8043 13.8227 79.4261 13.6355C78.7322 13.264 77.9404 13.0781 77.0509 13.0781C75.8587 13.0781 74.8 13.3911 73.8749 14.0168C72.9496 14.6231 72.2202 15.464 71.6863 16.5396C71.1525 17.5956 70.8857 18.7885 70.8857 20.1184C70.8857 21.4287 71.1525 22.6215 71.6863 23.6971C72.2202 24.7727 72.9496 25.6234 73.8749 26.2492C74.8 26.875 75.8587 27.1879 77.0509 27.1879C77.9226 27.1879 78.7144 27.0021 79.4261 26.6306C79.7709 26.4506 80.0822 26.2385 80.3602 25.9942V26.8946C80.3602 27.8919 80.0667 28.6644 79.4795 29.212C78.9102 29.7596 78.1184 30.0333 77.1042 30.0333C76.2858 30.0333 75.583 29.8769 74.9958 29.5639C74.4265 29.2511 73.9104 28.7915 73.4478 28.1852L70.9391 30.9426C71.5618 31.9205 72.407 32.6734 73.4745 33.2014ZM79.2927 22.7878C78.8834 23.0616 78.3942 23.1985 77.8248 23.1985C77.2554 23.1985 76.7572 23.0616 76.3302 22.7878C75.9209 22.514 75.6007 22.1424 75.3694 21.673C75.1381 21.1842 75.0225 20.6659 75.0225 20.1184C75.0225 19.5317 75.1381 19.0037 75.3694 18.5343C75.6007 18.065 75.9299 17.6934 76.3569 17.4196C76.7839 17.1458 77.2732 17.0089 77.8248 17.0089C78.3942 17.0089 78.8834 17.1458 79.2927 17.4196C79.7197 17.6934 80.0399 18.065 80.2535 18.5343C80.4848 19.0037 80.6004 19.5317 80.6004 20.1184C80.6004 20.705 80.4848 21.233 80.2535 21.7024C80.0399 22.1522 79.7197 22.514 79.2927 22.7878Z" fill="#03352C"/>
<path fill-rule="evenodd" clip-rule="evenodd" d="M93.0381 27.9486C91.7033 27.9486 90.4931 27.626 89.4083 26.9806C88.3404 26.3157 87.4954 25.4162 86.8726 24.2818C86.2499 23.1476 85.9385 21.8765 85.9385 20.4684C85.9385 19.0604 86.2499 17.7991 86.8726 16.6843C87.4954 15.5696 88.3404 14.6896 89.4083 14.0443C90.4755 13.3793 91.6857 13.0469 93.0381 13.0469C94.3897 13.0469 95.5999 13.3696 96.667 14.0149C97.735 14.6603 98.5799 15.5501 99.2027 16.6843C99.8255 17.7991 100.137 19.0604 100.137 20.4684C100.137 21.8765 99.8255 23.1476 99.2027 24.2818C98.5799 25.4162 97.735 26.3157 96.667 26.9806C95.5999 27.626 94.3897 27.9486 93.0381 27.9486ZM93.0381 23.8712C93.6247 23.8712 94.1406 23.7343 94.5858 23.4605C95.0301 23.1672 95.3684 22.7663 95.5999 22.2578C95.849 21.7298 95.9735 21.1333 95.9735 20.4684C95.9735 19.8035 95.849 19.2266 95.5999 18.7378C95.3508 18.2293 95.004 17.8382 94.5588 17.5644C94.1321 17.271 93.6247 17.1244 93.0381 17.1244C92.4683 17.1244 91.9609 17.271 91.5165 17.5644C91.0713 17.8382 90.7246 18.2293 90.4755 18.7378C90.2263 19.2462 90.1018 19.8329 90.1018 20.4978C90.1018 21.1431 90.2263 21.7298 90.4755 22.2578C90.7246 22.7663 91.0713 23.1672 91.5165 23.4605C91.9609 23.7343 92.4683 23.8712 93.0381 23.8712Z" fill="#03352C"/>
<path fill-rule="evenodd" clip-rule="evenodd" d="M115.534 27.9212C114.663 27.9212 113.862 27.7355 113.132 27.3639C112.748 27.1684 112.402 26.9349 112.092 26.6635V33.6414H108.062V13.3715H112.145V14.3555C112.441 14.0892 112.77 13.8589 113.132 13.6649C113.862 13.2737 114.663 13.0781 115.534 13.0781C116.762 13.0781 117.847 13.4009 118.79 14.0462C119.751 14.6915 120.498 15.5716 121.032 16.6863C121.584 17.801 121.859 19.0721 121.859 20.4997C121.859 21.9273 121.584 23.1985 121.032 24.3132C120.498 25.4279 119.751 26.3078 118.79 26.9532C117.847 27.5986 116.762 27.9212 115.534 27.9212ZM114.787 23.8732C115.374 23.8732 115.882 23.7264 116.308 23.4331C116.753 23.1398 117.1 22.7388 117.349 22.2304C117.598 21.722 117.723 21.1451 117.723 20.4997C117.723 19.8348 117.598 19.2482 117.349 18.7397C117.1 18.2312 116.753 17.8401 116.308 17.5663C115.882 17.2729 115.383 17.1263 114.814 17.1263C114.245 17.1263 113.737 17.2729 113.293 17.5663C112.865 17.8401 112.528 18.2312 112.279 18.7397C112.03 19.2482 111.905 19.8348 111.905 20.4997C111.905 21.1451 112.02 21.722 112.252 22.2304C112.501 22.7388 112.848 23.1398 113.293 23.4331C113.737 23.7264 114.235 23.8732 114.787 23.8732Z" fill="#03352C"/>
<path d="M125.856 27.6573C126.603 27.8725 127.359 27.98 128.124 27.98C129.743 27.98 131.024 27.5694 131.967 26.748C132.928 25.9267 133.408 24.8218 133.408 23.4332C133.408 22.5337 133.258 21.81 132.955 21.2625C132.653 20.6954 132.261 20.2456 131.781 19.9131C131.3 19.5807 130.793 19.3166 130.259 19.1211C129.726 18.9255 129.218 18.7593 128.738 18.6224C128.258 18.4855 127.866 18.3291 127.563 18.1531C127.261 17.977 127.11 17.7424 127.11 17.449C127.11 17.1752 127.226 16.9699 127.457 16.833C127.688 16.6766 128.035 16.5984 128.498 16.5984C128.978 16.5984 129.467 16.7059 129.965 16.921C130.481 17.1361 130.944 17.5078 131.353 18.0358L133.675 15.4544C133.088 14.633 132.323 14.0169 131.38 13.6063C130.455 13.1761 129.441 12.9609 128.338 12.9609C127.288 12.9609 126.372 13.1565 125.589 13.5476C124.806 13.9388 124.201 14.4765 123.774 15.161C123.347 15.8258 123.133 16.6179 123.133 17.5371C123.133 18.3975 123.285 19.1114 123.587 19.6785C123.889 20.226 124.281 20.6563 124.761 20.9691C125.242 21.2821 125.749 21.5265 126.283 21.7025C126.816 21.8785 127.324 22.0447 127.804 22.2012C128.284 22.3381 128.676 22.5043 128.978 22.6999C129.299 22.8759 129.459 23.1399 129.459 23.4919C129.459 23.7657 129.325 23.9807 129.058 24.1372C128.809 24.2937 128.445 24.3719 127.964 24.3719C127.27 24.3719 126.629 24.235 126.043 23.9612C125.455 23.6679 124.948 23.267 124.521 22.7585L122.199 25.3399C122.644 25.8679 123.178 26.3374 123.801 26.748C124.441 27.1391 125.126 27.4422 125.856 27.6573Z" fill="#03352C"/>
<path d="M140.854 27.9462C139.662 27.9462 138.604 27.6822 137.679 27.1542C136.771 26.6066 136.06 25.8635 135.544 24.9248C135.027 23.9666 134.77 22.8715 134.77 21.6394V13.3672H138.853V21.5807C138.853 22.0696 138.924 22.4901 139.067 22.8421C139.227 23.1941 139.458 23.4679 139.76 23.6635C140.063 23.859 140.427 23.9568 140.854 23.9568C141.459 23.9568 141.94 23.7514 142.296 23.3407C142.652 22.9105 142.829 22.3239 142.829 21.5807V13.3672H146.913V21.61C146.913 22.8617 146.655 23.9666 146.138 24.9248C145.623 25.8635 144.911 26.6066 144.003 27.1542C143.096 27.6822 142.047 27.9462 140.854 27.9462Z" fill="#03352C"/>
<path d="M153.026 13.3715H148.942V27.6279H153.026V19.297C153.026 18.8081 153.115 18.3974 153.293 18.065C153.489 17.7325 153.747 17.4783 154.067 17.3023C154.387 17.1067 154.752 17.0089 155.161 17.0089C155.748 17.0089 156.237 17.2143 156.629 17.625C157.038 18.0161 157.243 18.5735 157.243 19.297V27.6279H161.326V19.297C161.326 18.8081 161.415 18.3974 161.593 18.065C161.789 17.7325 162.047 17.4783 162.367 17.3023C162.687 17.1067 163.052 17.0089 163.461 17.0089C164.049 17.0089 164.538 17.2143 164.929 17.625C165.338 18.0161 165.543 18.5735 165.543 19.297V27.6279H169.627V18.7983C169.627 17.6054 169.395 16.5885 168.933 15.7476C168.487 14.8871 167.874 14.232 167.091 13.7822C166.326 13.3128 165.445 13.0781 164.449 13.0781C163.434 13.0781 162.518 13.3226 161.7 13.8116C161.168 14.123 160.704 14.525 160.305 15.0175C159.934 14.5023 159.483 14.0808 158.951 13.7528C158.239 13.3031 157.43 13.0781 156.523 13.0781C155.561 13.0781 154.699 13.3031 153.934 13.7528C153.601 13.9399 153.298 14.1641 153.026 14.4252V13.3715Z" fill="#03352C"/>
</g>
<defs>
<clipPath id="clip0_538_15685">
<rect width="170" height="37" fill="white"/>
</clipPath>
</defs>
</svg>
