<svg width="24" height="24" viewBox="0 0 24 24" fill="none" xmlns="http://www.w3.org/2000/svg">
<g clip-path="url(#clip0_387_28145)">
<path d="M12.0003 23.1412C18.1543 23.1412 23.1431 18.1524 23.1431 11.9983C23.1431 5.8443 18.1543 0.855469 12.0003 0.855469C5.84625 0.855469 0.857422 5.8443 0.857422 11.9983C0.857422 18.1524 5.84625 23.1412 12.0003 23.1412Z" stroke="#03352C" stroke-width="1.5" stroke-linecap="round" stroke-linejoin="round"/>
<path d="M11.9994 0.855469C11.9994 0.855469 5.02225 7.00975 11.9994 11.9983C17.9994 16.284 11.9994 23.1412 11.9994 23.1412" stroke="#03352C" stroke-width="1.5" stroke-linecap="round" stroke-linejoin="round"/>
<path d="M15.4291 9.42857C16.3759 9.42857 17.1434 8.66106 17.1434 7.71429C17.1434 6.76751 16.3759 6 15.4291 6C14.4824 6 13.7148 6.76751 13.7148 7.71429C13.7148 8.66106 14.4824 9.42857 15.4291 9.42857Z" stroke="#03352C" stroke-width="1.5" stroke-linecap="round" stroke-linejoin="round"/>
<path d="M8.57171 17.9989C9.51848 17.9989 10.286 17.2314 10.286 16.2846C10.286 15.3378 9.51848 14.5703 8.57171 14.5703C7.62493 14.5703 6.85742 15.3378 6.85742 16.2846C6.85742 17.2314 7.62493 17.9989 8.57171 17.9989Z" stroke="#03352C" stroke-width="1.5" stroke-linecap="round" stroke-linejoin="round"/>
</g>
<defs>
<clipPath id="clip0_387_28145">
<rect width="24" height="24" fill="white"/>
</clipPath>
</defs>
</svg>
