<svg width="24" height="24" viewBox="0 0 24 24" fill="none" xmlns="http://www.w3.org/2000/svg">
<g clip-path="url(#clip0_79_1432)">
<path d="M18 13.7148C18.004 12.645 17.7218 11.5935 17.1828 10.6694C16.6438 9.74527 15.8675 8.98206 14.9343 8.45885C14.0011 7.93564 12.945 7.67146 11.8754 7.69368C10.8058 7.71589 9.76156 8.0237 8.85091 8.58521C7.94026 9.14672 7.19631 9.9415 6.69613 10.8872C6.19594 11.8329 5.95773 12.8952 6.00615 13.964C6.05457 15.0327 6.38788 16.0691 6.97154 16.9657C7.5552 17.8623 8.36798 18.5866 9.32567 19.0634V22.012C9.33014 22.1863 9.40255 22.352 9.52745 22.4737C9.65235 22.5954 9.81986 22.6635 9.99424 22.6634H14.0057C14.1801 22.6635 14.3476 22.5954 14.4725 22.4737C14.5974 22.352 14.6698 22.1863 14.6742 22.012V19.012C15.6621 18.5202 16.4952 17.7656 17.0819 16.831C17.6687 15.8965 17.9863 14.8182 18 13.7148V13.7148Z" stroke="#03352C" stroke-width="1.5" stroke-linecap="round" stroke-linejoin="round"/>
<path d="M12 1.38867V3.9601" stroke="#03352C" stroke-width="1.5" stroke-linecap="round" stroke-linejoin="round"/>
<path d="M18.8571 3.83984L17.0399 5.67413" stroke="#03352C" stroke-width="1.5" stroke-linecap="round" stroke-linejoin="round"/>
<path d="M22.7656 9.1543H20.1942" stroke="#03352C" stroke-width="1.5" stroke-linecap="round" stroke-linejoin="round"/>
<path d="M5.14282 3.83984L6.95997 5.67413" stroke="#03352C" stroke-width="1.5" stroke-linecap="round" stroke-linejoin="round"/>
<path d="M1.23425 9.1543H3.80568" stroke="#03352C" stroke-width="1.5" stroke-linecap="round" stroke-linejoin="round"/>
</g>
<defs>
<clipPath id="clip0_79_1432">
<rect width="24" height="24" fill="white"/>
</clipPath>
</defs>
</svg>
