<svg width="40" height="40" viewBox="0 0 40 40" fill="none" xmlns="http://www.w3.org/2000/svg">
<g clip-path="url(#clip0_339_441)">
<path d="M30 31.4308H35.7143C36.4721 31.4308 37.1988 31.1298 37.7346 30.594C38.2704 30.0581 38.5714 29.3314 38.5714 28.5737V15.7165C38.5714 14.9588 38.2704 14.232 37.7346 13.6962C37.1988 13.1604 36.4721 12.8594 35.7143 12.8594H4.28573C3.52797 12.8594 2.80124 13.1604 2.26543 13.6962C1.72961 14.232 1.42859 14.9588 1.42859 15.7165V28.5737C1.42859 29.3314 1.72961 30.0581 2.26543 30.594C2.80124 31.1298 3.52797 31.4308 4.28573 31.4308H10" stroke="#03352C" stroke-width="1.5" stroke-linecap="round" stroke-linejoin="round"/>
<path d="M10 27.1445V37.1445C10 37.5234 10.1505 37.8868 10.4184 38.1547C10.6863 38.4226 11.0497 38.5731 11.4286 38.5731H28.5714C28.9503 38.5731 29.3137 38.4226 29.5816 38.1547C29.8495 37.8868 30 37.5234 30 37.1445V27.1445H10Z" stroke="#03352C" stroke-width="1.5" stroke-linecap="round" stroke-linejoin="round"/>
<path d="M30 12.8583V2.85826C30 2.47938 29.8495 2.11602 29.5816 1.84811C29.3137 1.5802 28.9503 1.42969 28.5714 1.42969H11.4286C11.0497 1.42969 10.6863 1.5802 10.4184 1.84811C10.1505 2.11602 10 2.47938 10 2.85826V12.8583" stroke="#03352C" stroke-width="1.5" stroke-linecap="round" stroke-linejoin="round"/>
<path d="M31.4286 20H28.5714" stroke="#03352C" stroke-width="1.5" stroke-linecap="round" stroke-linejoin="round"/>
</g>
<defs>
<clipPath id="clip0_339_441">
<rect width="40" height="40" fill="white"/>
</clipPath>
</defs>
</svg>
