<svg width="40" height="40" viewBox="0 0 40 40" fill="none" xmlns="http://www.w3.org/2000/svg">
<path d="M20 38.2546C21.876 38.2546 23.7337 37.8851 25.4669 37.1671C27.2001 36.4492 28.775 35.3969 30.1015 34.0704C31.4281 32.7438 32.4804 31.169 33.1983 29.4358C33.9162 27.7025 34.2857 25.8449 34.2857 23.9689V16.026C34.2859 12.5165 32.9943 9.12978 30.6571 6.51172" stroke="#03352C" stroke-width="1.5" stroke-linecap="round" stroke-linejoin="round"/>
<path d="M5.71426 19.1992V23.9706C5.71331 26.7829 6.54242 29.5329 8.09768 31.876C9.65295 34.219 11.8652 36.0509 14.4571 37.1421" stroke="#03352C" stroke-width="1.5" stroke-linecap="round" stroke-linejoin="round"/>
<path d="M27.1428 3.65608C23.8617 1.76176 19.9625 1.24841 16.3028 2.22895C12.6432 3.20949 9.523 5.60361 7.62854 8.88465C6.84848 10.2319 6.2981 11.6996 5.99997 13.2275" stroke="#03352C" stroke-width="1.5" stroke-linecap="round" stroke-linejoin="round"/>
<path d="M18.5143 10.0286C19.5651 9.81047 20.6515 9.83095 21.6934 10.0886C22.7353 10.3462 23.7061 10.8344 24.5342 11.5171C25.3622 12.1999 26.0265 13.0598 26.478 14.0335C26.9295 15.0072 27.1567 16.0697 27.1429 17.1429V21.7429" stroke="#03352C" stroke-width="1.5" stroke-linecap="round" stroke-linejoin="round"/>
<path d="M25.3143 27.7423C24.3421 28.8252 23.0624 29.5853 21.6465 29.9209C20.2305 30.2565 18.7458 30.1516 17.391 29.6203C16.0363 29.089 14.8762 28.1565 14.0659 26.9478C13.2556 25.739 12.8339 24.3116 12.8571 22.8566V17.1423C12.8517 16.161 13.0461 15.1889 13.4285 14.2852" stroke="#03352C" stroke-width="1.5" stroke-linecap="round" stroke-linejoin="round"/>
<path d="M20 17.457V22.2285" stroke="#03352C" stroke-width="1.5" stroke-linecap="round" stroke-linejoin="round"/>
</svg>
