<svg width="24" height="24" viewBox="0 0 24 24" fill="none" xmlns="http://www.w3.org/2000/svg">
<path d="M8.96575 3.85938L9.70289 1.95652C9.82721 1.63434 10.0459 1.35722 10.3304 1.16145C10.6149 0.965685 10.9519 0.860395 11.2972 0.859375H12.7029C13.0482 0.860395 13.3852 0.965685 13.6697 1.16145C13.9541 1.35722 14.1729 1.63434 14.2972 1.95652L15.0343 3.85938L17.5372 5.29937L19.56 4.9908C19.8969 4.94508 20.2397 5.00053 20.5449 5.1501C20.8502 5.29967 21.1041 5.53661 21.2743 5.8308L21.96 7.0308C22.1357 7.32969 22.2167 7.67483 22.1922 8.02067C22.1677 8.36651 22.039 8.6968 21.8229 8.96795L20.5715 10.5622V13.4422L21.8572 15.0365C22.0732 15.3077 22.202 15.638 22.2265 15.9838C22.251 16.3296 22.17 16.6748 21.9943 16.9737L21.3086 18.1737C21.1383 18.4679 20.8845 18.7048 20.5792 18.8544C20.274 19.0039 19.9312 19.0594 19.5943 19.0137L17.5715 18.7051L15.0686 20.1451L14.3315 22.0479C14.2071 22.3701 13.9884 22.6472 13.704 22.843C13.4195 23.0388 13.0825 23.1441 12.7372 23.1451H11.2972C10.9519 23.1441 10.6149 23.0388 10.3304 22.843C10.0459 22.6472 9.82721 22.3701 9.70289 22.0479L8.96575 20.1451L6.46289 18.7051L4.44004 19.0137C4.10321 19.0594 3.76039 19.0039 3.45515 18.8544C3.14991 18.7048 2.89602 18.4679 2.72575 18.1737L2.04004 16.9737C1.86433 16.6748 1.78337 16.3296 1.80785 15.9838C1.83234 15.638 1.96111 15.3077 2.17718 15.0365L3.42861 13.4422V10.5622L2.14289 8.96795C1.92683 8.6968 1.79805 8.36651 1.77357 8.02067C1.74908 7.67483 1.83004 7.32969 2.00575 7.0308L2.69147 5.8308C2.86173 5.53661 3.11562 5.29967 3.42086 5.1501C3.72611 5.00053 4.06892 4.94508 4.40575 4.9908L6.42861 5.29937L8.96575 3.85938ZM8.57147 12.0022C8.57147 12.6803 8.77255 13.3432 9.14928 13.907C9.52602 14.4709 10.0615 14.9103 10.688 15.1698C11.3145 15.4293 12.0038 15.4972 12.6689 15.3649C13.334 15.2326 13.9449 14.9061 14.4244 14.4266C14.9039 13.9471 15.2304 13.3362 15.3627 12.6711C15.495 12.006 15.4271 11.3167 15.1676 10.6902C14.9081 10.0637 14.4687 9.52822 13.9048 9.15148C13.341 8.77474 12.6781 8.57366 12 8.57366C11.0907 8.57366 10.2187 8.93488 9.57567 9.57787C8.93269 10.2208 8.57147 11.0929 8.57147 12.0022V12.0022Z" stroke="#03352C" stroke-width="1.5" stroke-linecap="round" stroke-linejoin="round"/>
</svg>
