<svg width="24" height="24" viewBox="0 0 24 24" fill="none" xmlns="http://www.w3.org/2000/svg">
<path d="M18.0003 3.42969H22.286C22.5133 3.42969 22.7313 3.51999 22.8921 3.68074C23.0528 3.84148 23.1431 4.0595 23.1431 4.28683V18.0011C23.1431 18.2284 23.0528 18.4465 22.8921 18.6072C22.7313 18.768 22.5133 18.8583 22.286 18.8583H1.71456C1.48724 18.8583 1.26922 18.768 1.10847 18.6072C0.947728 18.4465 0.857422 18.2284 0.857422 18.0011V4.28683C0.857422 4.0595 0.947728 3.84148 1.10847 3.68074C1.26922 3.51999 1.48724 3.42969 1.71456 3.42969H6.00028" stroke="#03352C" stroke-width="1.5" stroke-linecap="round" stroke-linejoin="round"/>
<path d="M10.2856 18.8594L8.57129 23.1451" stroke="#03352C" stroke-width="1.5" stroke-linecap="round" stroke-linejoin="round"/>
<path d="M13.7148 18.8594L15.4291 23.1451" stroke="#03352C" stroke-width="1.5" stroke-linecap="round" stroke-linejoin="round"/>
<path d="M6.85742 23.1445H17.1431" stroke="#03352C" stroke-width="1.5" stroke-linecap="round" stroke-linejoin="round"/>
<path d="M15.4284 9.42969H8.57129V14.5725H15.4284V9.42969Z" stroke="#03352C" stroke-width="1.5" stroke-linecap="round" stroke-linejoin="round"/>
<path d="M9.42871 9.43025V7.71596C9.42871 7.03397 9.69963 6.37992 10.1819 5.89769C10.6641 5.41545 11.3182 5.14453 12.0001 5.14453C12.6821 5.14453 13.3362 5.41545 13.8184 5.89769C14.3007 6.37992 14.5716 7.03397 14.5716 7.71596V9.43025" stroke="#03352C" stroke-width="1.5" stroke-linecap="round" stroke-linejoin="round"/>
</svg>
