<svg width="24" height="24" viewBox="0 0 24 24" fill="none" xmlns="http://www.w3.org/2000/svg">
<g clip-path="url(#clip0_380_17295)">
<path d="M11.9996 21.4621C17.6802 21.4621 22.2853 16.857 22.2853 11.1763C22.2853 5.4957 17.6802 0.890625 11.9996 0.890625C6.31894 0.890625 1.71387 5.4957 1.71387 11.1763C1.71387 16.857 6.31894 21.4621 11.9996 21.4621Z" stroke="#03352C" stroke-width="1.5" stroke-linecap="round" stroke-linejoin="round"/>
<path d="M17.2627 20.0234C18.8796 20.7441 20.3278 21.7952 21.5141 23.1092" stroke="#03352C" stroke-width="1.5" stroke-linecap="round" stroke-linejoin="round"/>
<path d="M2.48535 23.1092C3.67167 21.7952 5.11986 20.7441 6.73678 20.0234" stroke="#03352C" stroke-width="1.5" stroke-linecap="round" stroke-linejoin="round"/>
<path d="M11.9993 16.3209C14.8396 16.3209 17.1422 14.0183 17.1422 11.178C17.1422 8.33769 14.8396 6.03516 11.9993 6.03516C9.15898 6.03516 6.85645 8.33769 6.85645 11.178C6.85645 14.0183 9.15898 16.3209 11.9993 16.3209Z" stroke="#03352C" stroke-width="1.5" stroke-linecap="round" stroke-linejoin="round"/>
<path d="M11.9997 12.0346C12.4731 12.0346 12.8569 11.6508 12.8569 11.1775C12.8569 10.7041 12.4731 10.3203 11.9997 10.3203C11.5263 10.3203 11.1426 10.7041 11.1426 11.1775C11.1426 11.6508 11.5263 12.0346 11.9997 12.0346Z" stroke="#03352C" stroke-width="1.5" stroke-linecap="round" stroke-linejoin="round"/>
</g>
<defs>
<clipPath id="clip0_380_17295">
<rect width="24" height="24" fill="white"/>
</clipPath>
</defs>
</svg>
