<svg width="24" height="24" viewBox="0 0 24 24" fill="none" xmlns="http://www.w3.org/2000/svg">
<g clip-path="url(#clip0_362_143)">
<path d="M12 23.1412C18.1541 23.1412 23.1429 18.1524 23.1429 11.9983C23.1429 5.8443 18.1541 0.855469 12 0.855469C5.846 0.855469 0.857178 5.8443 0.857178 11.9983C0.857178 18.1524 5.846 23.1412 12 23.1412Z" stroke="#03352C" stroke-width="1.5" stroke-linecap="round" stroke-linejoin="round"/>
<path d="M12.0001 0.855469C12.0001 0.855469 5.02298 7.00975 12.0001 11.9983C18.0001 16.284 12.0001 23.1412 12.0001 23.1412" stroke="#03352C" stroke-width="1.5" stroke-linecap="round" stroke-linejoin="round"/>
<path d="M15.4286 9.42857C16.3754 9.42857 17.1429 8.66106 17.1429 7.71429C17.1429 6.76751 16.3754 6 15.4286 6C14.4819 6 13.7144 6.76751 13.7144 7.71429C13.7144 8.66106 14.4819 9.42857 15.4286 9.42857Z" stroke="#03352C" stroke-width="1.5" stroke-linecap="round" stroke-linejoin="round"/>
<path d="M8.57146 17.9989C9.51824 17.9989 10.2857 17.2314 10.2857 16.2846C10.2857 15.3378 9.51824 14.5703 8.57146 14.5703C7.62469 14.5703 6.85718 15.3378 6.85718 16.2846C6.85718 17.2314 7.62469 17.9989 8.57146 17.9989Z" stroke="#03352C" stroke-width="1.5" stroke-linecap="round" stroke-linejoin="round"/>
</g>
<defs>
<clipPath id="clip0_362_143">
<rect width="24" height="24" fill="white"/>
</clipPath>
</defs>
</svg>
