<svg width="24" height="24" viewBox="0 0 24 24" fill="none" xmlns="http://www.w3.org/2000/svg">
<g clip-path="url(#clip0_339_93)">
<path d="M21.4286 2.57031L15.5829 8.41603" stroke="#03352C" stroke-width="1.5" stroke-linecap="round" stroke-linejoin="round"/>
<path d="M2.57144 2.57031L8.41716 8.41603" stroke="#03352C" stroke-width="1.5" stroke-linecap="round" stroke-linejoin="round"/>
<path d="M2.57144 21.4277L8.41716 15.582" stroke="#03352C" stroke-width="1.5" stroke-linecap="round" stroke-linejoin="round"/>
<path d="M21.4286 21.4277L15.5829 15.582" stroke="#03352C" stroke-width="1.5" stroke-linecap="round" stroke-linejoin="round"/>
<path d="M12 23.1412C18.154 23.1412 23.1429 18.1524 23.1429 11.9983C23.1429 5.8443 18.154 0.855469 12 0.855469C5.84597 0.855469 0.857147 5.8443 0.857147 11.9983C0.857147 18.1524 5.84597 23.1412 12 23.1412Z" stroke="#03352C" stroke-width="1.5" stroke-linecap="round" stroke-linejoin="round"/>
<path d="M12 17.0557C14.793 17.0557 17.0572 14.7915 17.0572 11.9985C17.0572 9.20557 14.793 6.94141 12 6.94141C9.20703 6.94141 6.94287 9.20557 6.94287 11.9985C6.94287 14.7915 9.20703 17.0557 12 17.0557Z" stroke="#03352C" stroke-width="1.5" stroke-linecap="round" stroke-linejoin="round"/>
</g>
<defs>
<clipPath id="clip0_339_93">
<rect width="24" height="24" fill="white"/>
</clipPath>
</defs>
</svg>
