<svg width="24" height="24" viewBox="0 0 24 24" fill="none" xmlns="http://www.w3.org/2000/svg">
<g clip-path="url(#clip0_339_282)">
<path d="M14.5714 8.5692C15.5182 8.5692 16.2857 7.80168 16.2857 6.85491C16.2857 5.90814 15.5182 5.14062 14.5714 5.14062C13.6246 5.14062 12.8571 5.90814 12.8571 6.85491C12.8571 7.80168 13.6246 8.5692 14.5714 8.5692Z" stroke="#03352C" stroke-width="1.5" stroke-linecap="round" stroke-linejoin="round"/>
<path d="M7.71426 17.1401C8.18765 17.1401 8.5714 16.7563 8.5714 16.2829C8.5714 15.8095 8.18765 15.4258 7.71426 15.4258C7.24087 15.4258 6.85712 15.8095 6.85712 16.2829C6.85712 16.7563 7.24087 17.1401 7.71426 17.1401Z" stroke="#03352C" stroke-width="1.5" stroke-linecap="round" stroke-linejoin="round"/>
<path d="M7.71429 11.1395C8.66106 11.1395 9.42857 10.372 9.42857 9.42522C9.42857 8.47845 8.66106 7.71094 7.71429 7.71094C6.76751 7.71094 6 8.47845 6 9.42522C6 10.372 6.76751 11.1395 7.71429 11.1395Z" stroke="#03352C" stroke-width="1.5" stroke-linecap="round" stroke-linejoin="round"/>
<path d="M16.32 21.0498C16.3009 20.7172 16.1853 20.3975 15.9874 20.1296C15.7896 19.8617 15.5179 19.6572 15.2057 19.5412C14.4303 19.2863 13.7713 18.7633 13.3471 18.066C12.9229 17.3687 12.7614 16.543 12.8915 15.7373C13.0217 14.9315 13.435 14.1987 14.0572 13.6704C14.6793 13.1422 15.4695 12.8532 16.2857 12.8555H19.4914C20.0412 12.857 20.5834 12.7263 21.0721 12.4743C21.5608 12.2224 21.9817 11.8566 22.2994 11.4078C22.617 10.959 22.8221 10.4405 22.8973 9.8958C22.9725 9.35114 22.9156 8.79638 22.7314 8.27833C22.0496 6.35313 20.8517 4.65236 19.2688 3.36184C17.6858 2.07131 15.7785 1.24068 13.7555 0.960682C11.7324 0.680688 9.67124 0.962106 7.79725 1.77419C5.92327 2.58627 4.30853 3.89778 3.12944 5.56543C1.95036 7.23308 1.25229 9.19271 1.1115 11.2302C0.970714 13.2677 1.39263 15.3048 2.33114 17.1187C3.26966 18.9327 4.68867 20.4538 6.43315 21.5159C8.17764 22.578 10.1805 23.1403 12.2228 23.1412C13.2315 23.144 14.2355 23.0055 15.2057 22.7298C15.562 22.6299 15.8706 22.4053 16.0752 22.0969C16.2797 21.7885 16.3666 21.4169 16.32 21.0498V21.0498Z" stroke="#03352C" stroke-width="1.5" stroke-linecap="round" stroke-linejoin="round"/>
</g>
<defs>
<clipPath id="clip0_339_282">
<rect width="24" height="24" fill="white"/>
</clipPath>
</defs>
</svg>
