<svg width="24" height="24" viewBox="0 0 24 24" fill="none" xmlns="http://www.w3.org/2000/svg">
<g clip-path="url(#clip0_638_137)">
<path d="M7.71432 22.2856C11.5014 22.2856 14.5715 19.2155 14.5715 15.4284C14.5715 11.6413 11.5014 8.57129 7.71432 8.57129C3.92723 8.57129 0.857178 11.6413 0.857178 15.4284C0.857178 19.2155 3.92723 22.2856 7.71432 22.2856Z" stroke="#03352C" stroke-width="1.5" stroke-linecap="round" stroke-linejoin="round"/>
<path d="M16.2859 22.2856C20.0729 22.2856 23.143 19.2155 23.143 15.4284C23.143 11.6413 20.0729 8.57129 16.2859 8.57129C12.4988 8.57129 9.42871 11.6413 9.42871 15.4284C9.42871 19.2155 12.4988 22.2856 16.2859 22.2856Z" stroke="#03352C" stroke-width="1.5" stroke-linecap="round" stroke-linejoin="round"/>
<path d="M12 15.4282C15.7871 15.4282 18.8571 12.3581 18.8571 8.57101C18.8571 4.78391 15.7871 1.71387 12 1.71387C8.21287 1.71387 5.14282 4.78391 5.14282 8.57101C5.14282 12.3581 8.21287 15.4282 12 15.4282Z" stroke="#03352C" stroke-width="1.5" stroke-linecap="round" stroke-linejoin="round"/>
</g>
<defs>
<clipPath id="clip0_638_137">
<rect width="24" height="24" fill="white"/>
</clipPath>
</defs>
</svg>
