<svg width="30" height="30" viewBox="0 0 30 30" fill="none" xmlns="http://www.w3.org/2000/svg">
<g clip-path="url(#clip0_176_964)">
<path d="M3.21427 12.8574H5.35713C5.64129 12.8574 5.91381 12.9703 6.11474 13.1712C6.31567 13.3722 6.42855 13.6447 6.42855 13.9289V19.286C6.42855 19.5702 6.31567 19.8427 6.11474 20.0436C5.91381 20.2445 5.64129 20.3574 5.35713 20.3574H3.21427C2.64595 20.3574 2.1009 20.1317 1.69904 19.7298C1.29718 19.3279 1.07141 18.7829 1.07141 18.2146V15.0003C1.07141 14.432 1.29718 13.8869 1.69904 13.4851C2.1009 13.0832 2.64595 12.8574 3.21427 12.8574V12.8574Z" stroke="#03352C" stroke-width="1.5" stroke-linecap="round" stroke-linejoin="round"/>
<path d="M26.7857 20.3574H24.6429C24.3587 20.3574 24.0862 20.2445 23.8853 20.0436C23.6843 19.8427 23.5714 19.5702 23.5714 19.286V13.9289C23.5714 13.6447 23.6843 13.3722 23.8853 13.1712C24.0862 12.9703 24.3587 12.8574 24.6429 12.8574H26.7857C27.3541 12.8574 27.8991 13.0832 28.301 13.4851C28.7028 13.8869 28.9286 14.432 28.9286 15.0003V18.2146C28.9286 18.7829 28.7028 19.3279 28.301 19.7298C27.8991 20.1317 27.3541 20.3574 26.7857 20.3574V20.3574Z" stroke="#03352C" stroke-width="1.5" stroke-linecap="round" stroke-linejoin="round"/>
<path d="M20.3572 26.2503C21.4938 26.2503 22.5839 25.7987 23.3876 24.995C24.1914 24.1913 24.6429 23.1012 24.6429 21.9646V20.3574" stroke="#03352C" stroke-width="1.5" stroke-linecap="round" stroke-linejoin="round"/>
<path d="M17.6785 23.5723C18.3889 23.5723 19.0702 23.8545 19.5725 24.3568C20.0749 24.8591 20.3571 25.5404 20.3571 26.2508C20.3571 26.9612 20.0749 27.6425 19.5725 28.1449C19.0702 28.6472 18.3889 28.9294 17.6785 28.9294H14.4642C13.7538 28.9294 13.0725 28.6472 12.5702 28.1449C12.0679 27.6425 11.7856 26.9612 11.7856 26.2508C11.7856 25.5404 12.0679 24.8591 12.5702 24.3568C13.0725 23.8545 13.7538 23.5723 14.4642 23.5723H17.6785Z" stroke="#03352C" stroke-width="1.5" stroke-linecap="round" stroke-linejoin="round"/>
<path d="M5.35718 12.858V10.7151C5.35718 8.15768 6.37312 5.70498 8.18151 3.89659C9.98989 2.08821 12.4426 1.07227 15 1.07227C17.5575 1.07227 20.0102 2.08821 21.8186 3.89659C23.627 5.70498 24.6429 8.15768 24.6429 10.7151V12.858" stroke="#03352C" stroke-width="1.5" stroke-linecap="round" stroke-linejoin="round"/>
<path d="M11.7856 8.57227V11.7866" stroke="#03352C" stroke-width="1.5" stroke-linecap="round" stroke-linejoin="round"/>
<path d="M18.2142 8.57227V11.7866" stroke="#03352C" stroke-width="1.5" stroke-linecap="round" stroke-linejoin="round"/>
<path d="M11.7856 16.0723C11.7856 18.9223 18.2142 18.9223 18.2142 16.0723" stroke="#03352C" stroke-width="1.5" stroke-linecap="round" stroke-linejoin="round"/>
</g>
<defs>
<clipPath id="clip0_176_964">
<rect width="30" height="30" fill="white"/>
</clipPath>
</defs>
</svg>
