<svg width="24" height="24" viewBox="0 0 24 24" fill="none" xmlns="http://www.w3.org/2000/svg">
<g clip-path="url(#clip0_538_15751)">
<path d="M12 13.715C14.3669 13.715 16.2857 11.7962 16.2857 9.42927C16.2857 7.06233 14.3669 5.14355 12 5.14355C9.63307 5.14355 7.71429 7.06233 7.71429 9.42927C7.71429 11.7962 9.63307 13.715 12 13.715Z" stroke="#03352C" stroke-width="1.5" stroke-linecap="round" stroke-linejoin="round"/>
<path d="M17.6743 18.4293C16.1079 17.0458 14.0899 16.2822 12 16.2822C9.91006 16.2822 7.89213 17.0458 6.32571 18.4293" stroke="#03352C" stroke-width="1.5" stroke-linecap="round" stroke-linejoin="round"/>
<path d="M23.1429 18V21.4286C23.1429 21.8832 22.9622 22.3193 22.6408 22.6408C22.3193 22.9622 21.8832 23.1429 21.4286 23.1429H18" stroke="#03352C" stroke-width="1.5" stroke-linecap="round" stroke-linejoin="round"/>
<path d="M18 0.857422H21.4286C21.8832 0.857422 22.3193 1.03803 22.6408 1.35952C22.9622 1.68102 23.1429 2.11705 23.1429 2.57171V6.00028" stroke="#03352C" stroke-width="1.5" stroke-linecap="round" stroke-linejoin="round"/>
<path d="M0.857147 6.00028V2.57171C0.857147 2.11705 1.03776 1.68102 1.35925 1.35952C1.68074 1.03803 2.11678 0.857422 2.57143 0.857422H6" stroke="#03352C" stroke-width="1.5" stroke-linecap="round" stroke-linejoin="round"/>
<path d="M6 23.1429H2.57143C2.11678 23.1429 1.68074 22.9622 1.35925 22.6408C1.03776 22.3193 0.857147 21.8832 0.857147 21.4286V18" stroke="#03352C" stroke-width="1.5" stroke-linecap="round" stroke-linejoin="round"/>
</g>
<defs>
<clipPath id="clip0_538_15751">
<rect width="24" height="24" fill="white"/>
</clipPath>
</defs>
</svg>
