<svg width="24" height="24" viewBox="0 0 24 24" fill="none" xmlns="http://www.w3.org/2000/svg">
<g clip-path="url(#clip0_81_1472)">
<path d="M20.5715 12.8577V9.42913C20.5715 8.97447 20.3909 8.53844 20.0694 8.21695C19.7479 7.89546 19.3118 7.71484 18.8572 7.71484H2.57146C2.11681 7.71484 1.68077 7.89546 1.35928 8.21695C1.03779 8.53844 0.857178 8.97447 0.857178 9.42913V21.4291C0.857178 21.8838 1.03779 22.3198 1.35928 22.6413C1.68077 22.9628 2.11681 23.1434 2.57146 23.1434H18.8572C19.3118 23.1434 19.7479 22.9628 20.0694 22.6413C20.3909 22.3198 20.5715 21.8838 20.5715 21.4291V17.1434" stroke="#03352C" stroke-width="1.5" stroke-linecap="round" stroke-linejoin="round"/>
<path d="M6.58289 3.42897L16.3029 0.891832C16.4121 0.861057 16.5264 0.852732 16.639 0.867359C16.7515 0.881986 16.8599 0.919262 16.9576 0.976937C17.0554 1.03461 17.1404 1.11149 17.2076 1.20293C17.2748 1.29437 17.3227 1.39848 17.3486 1.50897L17.8286 3.42897" stroke="#03352C" stroke-width="1.5" stroke-linecap="round" stroke-linejoin="round"/>
<path d="M22.2858 12.8574H18.0001C17.5267 12.8574 17.1429 13.2412 17.1429 13.7146V16.286C17.1429 16.7594 17.5267 17.1431 18.0001 17.1431H22.2858C22.7592 17.1431 23.1429 16.7594 23.1429 16.286V13.7146C23.1429 13.2412 22.7592 12.8574 22.2858 12.8574Z" stroke="#03352C" stroke-width="1.5" stroke-linecap="round" stroke-linejoin="round"/>
</g>
<defs>
<clipPath id="clip0_81_1472">
<rect width="24" height="24" fill="white"/>
</clipPath>
</defs>
</svg>
