<svg width="24" height="24" viewBox="0 0 24 24" fill="none" xmlns="http://www.w3.org/2000/svg">
<g clip-path="url(#clip0_354_588)">
<path d="M2.57146 10.2859H4.28575C4.51308 10.2859 4.73109 10.3762 4.89184 10.5369C5.05259 10.6977 5.14289 10.9157 5.14289 11.143V15.4287C5.14289 15.6561 5.05259 15.8741 4.89184 16.0348C4.73109 16.1956 4.51308 16.2859 4.28575 16.2859H2.57146C2.11681 16.2859 1.68077 16.1053 1.35928 15.7838C1.03779 15.4623 0.857178 15.0263 0.857178 14.5716V12.0002C0.857178 11.5455 1.03779 11.1095 1.35928 10.788C1.68077 10.4665 2.11681 10.2859 2.57146 10.2859V10.2859Z" stroke="#FAD459" stroke-width="1.5" stroke-linecap="round" stroke-linejoin="round"/>
<path d="M21.4287 16.2859H19.7144C19.487 16.2859 19.269 16.1956 19.1083 16.0348C18.9475 15.8741 18.8572 15.6561 18.8572 15.4287V11.143C18.8572 10.9157 18.9475 10.6977 19.1083 10.5369C19.269 10.3762 19.487 10.2859 19.7144 10.2859H21.4287C21.8833 10.2859 22.3194 10.4665 22.6408 10.788C22.9623 11.1095 23.1429 11.5455 23.1429 12.0002V14.5716C23.1429 15.0263 22.9623 15.4623 22.6408 15.7838C22.3194 16.1053 21.8833 16.2859 21.4287 16.2859V16.2859Z" stroke="#FAD459" stroke-width="1.5" stroke-linecap="round" stroke-linejoin="round"/>
<path d="M16.2858 21.0002C17.1951 21.0002 18.0672 20.639 18.7101 19.996C19.3531 19.353 19.7143 18.4809 19.7143 17.5716V16.2859" stroke="#FAD459" stroke-width="1.5" stroke-linecap="round" stroke-linejoin="round"/>
<path d="M14.1429 18.8574C14.7112 18.8574 15.2562 19.0832 15.6581 19.4851C16.06 19.8869 16.2857 20.432 16.2857 21.0003C16.2857 21.5686 16.06 22.1136 15.6581 22.5155C15.2562 22.9174 14.7112 23.1431 14.1429 23.1431H11.5714C11.0031 23.1431 10.4581 22.9174 10.0562 22.5155C9.65435 22.1136 9.42859 21.5686 9.42859 21.0003C9.42859 20.432 9.65435 19.8869 10.0562 19.4851C10.4581 19.0832 11.0031 18.8574 11.5714 18.8574H14.1429Z" stroke="#FAD459" stroke-width="1.5" stroke-linecap="round" stroke-linejoin="round"/>
<path d="M4.28577 10.286V8.57171C4.28577 6.52575 5.09852 4.56359 6.54523 3.11688C7.99194 1.67017 9.9541 0.857422 12.0001 0.857422C14.046 0.857422 16.0082 1.67017 17.4549 3.11688C18.9016 4.56359 19.7143 6.52575 19.7143 8.57171V10.286" stroke="#FAD459" stroke-width="1.5" stroke-linecap="round" stroke-linejoin="round"/>
<path d="M9.42859 6.85742V9.42885" stroke="#FAD459" stroke-width="1.5" stroke-linecap="round" stroke-linejoin="round"/>
<path d="M14.5714 6.85742V9.42885" stroke="#FAD459" stroke-width="1.5" stroke-linecap="round" stroke-linejoin="round"/>
<path d="M9.42859 12.8574C9.42859 15.1374 14.5714 15.1374 14.5714 12.8574" stroke="#FAD459" stroke-width="1.5" stroke-linecap="round" stroke-linejoin="round"/>
</g>
<defs>
<clipPath id="clip0_354_588">
<rect width="24" height="24" fill="white"/>
</clipPath>
</defs>
</svg>
