<svg width="45" height="45" viewBox="0 0 45 45" fill="none" xmlns="http://www.w3.org/2000/svg">
<g clip-path="url(#clip0_1001_93)">
<path d="M15.5768 20.7727H9.51903C8.79783 20.7727 8.1847 20.5203 7.67984 20.0155C7.17527 19.5106 6.92265 18.8977 6.92265 18.1763V17.3113C6.92265 15.4001 7.59886 13.7687 8.95118 12.4163C10.3034 11.0645 11.9352 10.3883 13.8461 10.3883H15.5768C16.0455 10.3883 16.451 10.2169 16.7937 9.8745C17.1362 9.53189 17.3074 9.12639 17.3074 8.65762V5.19577C17.3074 4.72709 17.1361 4.32121 16.7937 3.97861C16.4511 3.63648 16.0456 3.46484 15.5768 3.46484H13.8461C11.971 3.46484 10.182 3.83028 8.47805 4.5601C6.77431 5.2904 5.30065 6.27757 4.0565 7.52173C2.81244 8.76532 1.82555 10.2391 1.09535 11.943C0.365147 13.6467 0 15.4362 0 17.3112V36.3492C0 37.7923 0.504576 39.0176 1.5142 40.0276C2.52392 41.037 3.75017 41.5417 5.19239 41.5417H15.5774C17.0196 41.5417 18.2454 41.037 19.2553 40.0276C20.2647 39.0176 20.7696 37.7923 20.7696 36.3492V25.9651C20.7696 24.5223 20.2647 23.297 19.2546 22.2869C18.2452 21.2775 17.0189 20.7727 15.5768 20.7727Z" fill="#FAD459"/>
<path d="M43.4875 22.2869C42.4781 21.2775 41.2522 20.7727 39.8097 20.7727H33.752C33.0312 20.7727 32.4175 20.5203 31.9135 20.0155C31.4084 19.5106 31.1563 18.8977 31.1563 18.1763V17.3113C31.1563 15.4001 31.8325 13.7687 33.1842 12.4163C34.5359 11.0645 36.1676 10.3883 38.0795 10.3883H39.8098C40.2785 10.3883 40.6843 10.2169 41.0267 9.8745C41.369 9.53189 41.5409 9.12639 41.5409 8.65762V5.19577C41.5409 4.72709 41.3691 4.32121 41.0267 3.97861C40.6844 3.63648 40.2786 3.46484 39.8098 3.46484H38.0795C36.2033 3.46484 34.4147 3.83028 32.7103 4.5601C31.0068 5.2904 29.5336 6.27757 28.2895 7.52173C27.0453 8.76532 26.058 10.2391 25.3281 11.943C24.598 13.6467 24.2324 15.4362 24.2324 17.3112V36.3492C24.2324 37.7923 24.7375 39.0176 25.7468 40.0276C26.7562 41.037 27.9822 41.5417 29.4246 41.5417H39.8091C41.2516 41.5417 42.4775 41.037 43.4868 40.0276C44.4969 39.0176 45.0009 37.7923 45.0009 36.3492V25.9651C45.001 24.5222 44.4969 23.297 43.4875 22.2869Z" fill="#FAD459"/>
</g>
<defs>
<clipPath id="clip0_1001_93">
<rect width="45" height="45" fill="white"/>
</clipPath>
</defs>
</svg>
