<svg width="25" height="25" viewBox="0 0 25 25" fill="none" xmlns="http://www.w3.org/2000/svg">
<g clip-path="url(#clip0_131_231)">
<path d="M13.3393 12.3208C13.0744 12.4359 12.7887 12.4952 12.5 12.4952C12.2112 12.4952 11.9256 12.4359 11.6607 12.3208L1.48212 7.60656C1.31684 7.52319 1.17794 7.39558 1.0809 7.23794C0.983849 7.0803 0.932465 6.89882 0.932465 6.7137C0.932465 6.52858 0.983849 6.3471 1.0809 6.18946C1.17794 6.03182 1.31684 5.90421 1.48212 5.82084L11.6607 1.07084C11.9256 0.955832 12.2112 0.896484 12.5 0.896484C12.7887 0.896484 13.0744 0.955832 13.3393 1.07084L23.5178 5.78513C23.6831 5.8685 23.822 5.9961 23.9191 6.15374C24.0161 6.31138 24.0675 6.49287 24.0675 6.67799C24.0675 6.8631 24.0161 7.04459 23.9191 7.20223C23.822 7.35987 23.6831 7.48748 23.5178 7.57084L13.3393 12.3208Z" stroke="#03352C" stroke-width="1.5" stroke-linecap="round" stroke-linejoin="round"/>
<path d="M24.1071 13.125L13.2143 18.1429C12.9816 18.249 12.7289 18.3039 12.4732 18.3039C12.2175 18.3039 11.9648 18.249 11.7321 18.1429L0.892853 13.125" stroke="#03352C" stroke-width="1.5" stroke-linecap="round" stroke-linejoin="round"/>
<path d="M24.1071 18.9277L13.2143 23.9456C12.9816 24.0517 12.7289 24.1066 12.4732 24.1066C12.2175 24.1066 11.9648 24.0517 11.7321 23.9456L0.892853 18.9277" stroke="#03352C" stroke-width="1.5" stroke-linecap="round" stroke-linejoin="round"/>
</g>
<defs>
<clipPath id="clip0_131_231">
<rect width="25" height="25" fill="white"/>
</clipPath>
</defs>
</svg>
