<svg width="24" height="24" viewBox="0 0 24 24" fill="none" xmlns="http://www.w3.org/2000/svg">
<g clip-path="url(#clip0_387_28130)">
<path d="M9.00028 14.1406H1.71456C1.24118 14.1406 0.857422 14.5244 0.857422 14.9978V22.2835C0.857422 22.7569 1.24118 23.1406 1.71456 23.1406H9.00028C9.47367 23.1406 9.85742 22.7569 9.85742 22.2835V14.9978C9.85742 14.5244 9.47367 14.1406 9.00028 14.1406Z" stroke="#03352C" stroke-width="1.5" stroke-linecap="round" stroke-linejoin="round"/>
<path d="M22.2864 14.1406H15.0007C14.5273 14.1406 14.1436 14.5244 14.1436 14.9978V22.2835C14.1436 22.7569 14.5273 23.1406 15.0007 23.1406H22.2864C22.7598 23.1406 23.1436 22.7569 23.1436 22.2835V14.9978C23.1436 14.5244 22.7598 14.1406 22.2864 14.1406Z" stroke="#03352C" stroke-width="1.5" stroke-linecap="round" stroke-linejoin="round"/>
<path d="M15.6516 0.855469H8.36593C7.89254 0.855469 7.50879 1.23922 7.50879 1.71261V8.99833C7.50879 9.47171 7.89254 9.85547 8.36593 9.85547H15.6516C16.125 9.85547 16.5088 9.47171 16.5088 8.99833V1.71261C16.5088 1.23922 16.125 0.855469 15.6516 0.855469Z" stroke="#03352C" stroke-width="1.5" stroke-linecap="round" stroke-linejoin="round"/>
</g>
<defs>
<clipPath id="clip0_387_28130">
<rect width="24" height="24" fill="white"/>
</clipPath>
</defs>
</svg>
