<svg width="25" height="25" viewBox="0 0 25 25" fill="none" xmlns="http://www.w3.org/2000/svg">
<g clip-path="url(#clip0_176_941)">
<path d="M12.5 24.1069C18.9105 24.1069 24.1072 18.9102 24.1072 12.4997C24.1072 6.08927 18.9105 0.892578 12.5 0.892578C6.08958 0.892578 0.892883 6.08927 0.892883 12.4997C0.892883 18.9102 6.08958 24.1069 12.5 24.1069Z" stroke="#03352C" stroke-width="1.5" stroke-linecap="round" stroke-linejoin="round"/>
<path d="M22.2858 6.25H15.1429C14.1957 6.25 13.2873 6.62627 12.6175 7.29605C11.9477 7.96582 11.5715 8.87423 11.5715 9.82143C11.5715 10.7686 11.9477 11.677 12.6175 12.3468C13.2873 13.0166 14.1957 13.3929 15.1429 13.3929C15.6165 13.3929 16.0707 13.581 16.4056 13.9159C16.7405 14.2508 16.9286 14.705 16.9286 15.1786V23.2143" stroke="#03352C" stroke-width="1.5" stroke-linecap="round" stroke-linejoin="round"/>
<path d="M1.03577 14.2852H5.3572C6.3044 14.2852 7.2128 14.6614 7.88258 15.3312C8.55235 16.001 8.92862 16.9094 8.92862 17.8566V23.553" stroke="#03352C" stroke-width="1.5" stroke-linecap="round" stroke-linejoin="round"/>
</g>
<defs>
<clipPath id="clip0_176_941">
<rect width="25" height="25" fill="white"/>
</clipPath>
</defs>
</svg>
