<svg width="10" height="10" viewBox="0 0 10 10" fill="none" xmlns="http://www.w3.org/2000/svg">
<g clip-path="url(#clip0_695_74)">
<mask id="mask0_695_74" style="mask-type:luminance" maskUnits="userSpaceOnUse" x="0" y="0" width="10" height="10">
<path d="M0 10L10 10L10 0L0 0L0 10Z" fill="white"/>
</mask>
<g mask="url(#mask0_695_74)">
<path d="M0.147449 50C0.0510995 40.2875 0.0156489 32.6472 0.0033989 24.9971L24.999 -0.000499725L15.2549 -0.000499725C26.5844 -0.00939973 36.1527 -0.0154522 50 0.151848L50 50L0.147449 50ZM10.0015 -0.000499725H15.2549C13.4772 0.000900275 11.6562 0.00204876 9.76855 0.00294876C9.84598 0.00114876 9.92361 -0.000499725 10.0015 -0.000499725ZM9.74316 0.0033989C4.3397 0.140449 0.00144958 4.56305 0.00144958 9.99951L0.00144958 22.9263C-0.00610042 15.9658 0.00205 8.84256 0 0C3.4861 0.0044 6.7013 0.0048489 9.74316 0.0033989ZM0.00144958 22.9263C0.00219958 23.6177 0.0022989 24.3074 0.0033989 24.9971L0.00144958 24.9986V22.9263Z" fill="#D9D9D9"/>
</g>
</g>
<defs>
<clipPath id="clip0_695_74">
<rect width="10" height="10" fill="white" transform="matrix(-1 0 0 -1 10 10)"/>
</clipPath>
</defs>
</svg>
