<svg width="50" height="50" viewBox="0 0 50 50" fill="none" xmlns="http://www.w3.org/2000/svg">
<circle cx="25" cy="25" r="25" fill="#FAD459"/>
<path fill-rule="evenodd" clip-rule="evenodd" d="M26.8864 10C31.759 18.9973 36.1302 22.2043 39.9999 19.6209C39.6534 28.5173 36.0681 35.3102 29.2438 40C39.9424 25.5565 27.5222 18.1083 26.8862 10" fill="#03352C"/>
<path fill-rule="evenodd" clip-rule="evenodd" d="M35.7762 18.2937C34.1759 18.2937 32.8784 17.0419 32.8784 15.4974C32.8784 13.953 34.1759 12.7012 35.7762 12.7012C37.3766 12.7012 38.6741 13.9532 38.6741 15.4974C38.6741 17.0417 37.3768 18.2937 35.7762 18.2937Z" fill="#03352C"/>
<path fill-rule="evenodd" clip-rule="evenodd" d="M23.1137 10C18.2411 18.9973 13.87 22.2043 10 19.6209C10.3466 28.5173 13.9319 35.3102 20.7561 40C10.0575 25.5565 22.4777 18.1083 23.1137 10Z" fill="#03352C"/>
<path fill-rule="evenodd" clip-rule="evenodd" d="M14.224 18.2937C15.8243 18.2937 17.1218 17.0419 17.1218 15.4974C17.1218 13.953 15.8243 12.7012 14.224 12.7012C12.6236 12.7012 11.3262 13.9532 11.3262 15.4974C11.3262 17.0417 12.6234 18.2937 14.224 18.2937Z" fill="#03352C"/>
<path fill-rule="evenodd" clip-rule="evenodd" d="M29.0978 28.501C29.1341 25.1515 27.2974 21.9485 24.7177 19.707C22.5781 21.5662 21.2111 24.087 20.8277 26.804L24.5742 30.4193L24.4156 30.5724L20.7926 27.0764C20.7688 27.2801 20.7505 27.4846 20.7379 27.6903L24.5742 31.3922L24.4156 31.5452L20.7239 27.9829C20.7179 28.1552 20.7155 28.328 20.7175 28.5012C20.7181 28.5495 20.7189 28.5976 20.7201 28.6458L24.5742 32.3648L24.4156 32.5179L20.7321 28.9633C20.8972 32.1412 22.4014 35.1244 24.9078 37.2122C27.5354 35.0233 29.0616 31.8505 29.0978 28.501Z" fill="#03352C"/>
</svg>
