<svg width="137" height="50" viewBox="0 0 137 50" fill="none" xmlns="http://www.w3.org/2000/svg">
<circle cx="25" cy="25" r="25" fill="#FAD459"/>
<path fill-rule="evenodd" clip-rule="evenodd" d="M26.8866 10C31.7591 18.9973 36.1303 22.2043 40.0001 19.6209C39.6535 28.5173 36.0682 35.3102 29.2439 40C39.9426 25.5565 27.5224 18.1083 26.8864 10" fill="#03352C"/>
<path fill-rule="evenodd" clip-rule="evenodd" d="M35.7763 18.2957C34.1759 18.2957 32.8785 17.0438 32.8785 15.4994C32.8785 13.9549 34.1759 12.7031 35.7763 12.7031C37.3766 12.7031 38.6741 13.9551 38.6741 15.4994C38.6741 17.0437 37.3768 18.2957 35.7763 18.2957Z" fill="#03352C"/>
<path fill-rule="evenodd" clip-rule="evenodd" d="M23.1137 10C18.2411 18.9973 13.87 22.2043 10 19.6209C10.3466 28.5173 13.9319 35.3102 20.7561 40C10.0575 25.5565 22.4777 18.1083 23.1137 10Z" fill="#03352C"/>
<path fill-rule="evenodd" clip-rule="evenodd" d="M14.2239 18.2957C15.8243 18.2957 17.1217 17.0438 17.1217 15.4994C17.1217 13.9549 15.8243 12.7031 14.2239 12.7031C12.6236 12.7031 11.3261 13.9551 11.3261 15.4994C11.3261 17.0437 12.6234 18.2957 14.2239 18.2957Z" fill="#03352C"/>
<path fill-rule="evenodd" clip-rule="evenodd" d="M29.0978 28.501C29.1341 25.1515 27.2973 21.9485 24.7176 19.707C22.578 21.5662 21.211 24.087 20.8276 26.804L24.5742 30.4193L24.4156 30.5724L20.7926 27.0764C20.7687 27.2801 20.7505 27.4846 20.7379 27.6903L24.5742 31.3922L24.4156 31.5452L20.7239 27.9829C20.7179 28.1552 20.7155 28.328 20.7175 28.5012C20.7181 28.5495 20.7189 28.5976 20.7201 28.6458L24.5742 32.3648L24.4156 32.5179L20.7321 28.9633C20.8971 32.1412 22.4013 35.1244 24.9077 37.2122C27.5353 35.0233 29.0616 31.8505 29.0978 28.501Z" fill="#03352C"/>
<path d="M67.64 17.2H70.76L65.84 34H62.504L67.64 17.2ZM72.248 17.2L77.432 34H74.072L69.128 17.2H72.248ZM65.408 27.544H74.456V30.376H65.408V27.544ZM86.6664 26.32H89.9064V34H86.6664V26.32ZM84.1464 20.176C86.0344 20.176 87.4664 20.728 88.4424 21.832C89.4184 22.936 89.9064 24.432 89.9064 26.32H86.6664C86.6664 25.696 86.6024 25.136 86.4744 24.64C86.3464 24.144 86.0984 23.752 85.7304 23.464C85.3624 23.16 84.8344 23.008 84.1464 23.008C83.2504 23.008 82.5784 23.24 82.1304 23.704C81.6824 24.152 81.4584 24.68 81.4584 25.288H78.0984C78.0984 24.376 78.3304 23.536 78.7944 22.768C79.2744 21.984 79.9624 21.36 80.8584 20.896C81.7704 20.416 82.8664 20.176 84.1464 20.176ZM86.9784 25.576L87.4824 27.76C85.5144 27.648 84.0824 27.824 83.1864 28.288C82.3064 28.736 81.8664 29.304 81.8664 29.992C81.8664 30.488 82.0424 30.864 82.3944 31.12C82.7624 31.36 83.2024 31.48 83.7144 31.48C84.1944 31.48 84.6584 31.4 85.1064 31.24C85.5704 31.064 85.9464 30.776 86.2344 30.376C86.5224 29.976 86.6664 29.416 86.6664 28.696L87.3144 29.776C87.2984 30.672 87.1144 31.464 86.7624 32.152C86.4264 32.84 85.9464 33.384 85.3224 33.784C84.7144 34.184 83.9704 34.384 83.0904 34.384C82.2104 34.384 81.4264 34.224 80.7384 33.904C80.0504 33.568 79.5064 33.088 79.1064 32.464C78.7064 31.84 78.5064 31.08 78.5064 30.184C78.5064 29.32 78.6824 28.608 79.0344 28.048C79.3864 27.488 79.8504 27.048 80.4264 26.728C81.0184 26.392 81.6824 26.144 82.4184 25.984C83.1544 25.824 83.9144 25.72 84.6984 25.672C85.4824 25.608 86.2424 25.576 86.9784 25.576ZM94.8088 29.752C94.8888 30.44 95.1848 30.928 95.6968 31.216C96.2248 31.488 96.8248 31.624 97.4968 31.624C98.1688 31.624 98.7208 31.504 99.1528 31.264C99.5848 31.024 99.8008 30.632 99.8008 30.088C99.8008 29.752 99.6488 29.496 99.3448 29.32C99.0568 29.128 98.6728 28.984 98.1928 28.888C97.7288 28.776 97.2088 28.672 96.6328 28.576C96.0728 28.48 95.5048 28.352 94.9288 28.192C94.3528 28.032 93.8248 27.808 93.3448 27.52C92.8648 27.232 92.4808 26.848 92.1928 26.368C91.9048 25.872 91.7607 25.24 91.7607 24.472C91.7607 23.752 91.9928 23.064 92.4568 22.408C92.9208 21.736 93.5688 21.2 94.4008 20.8C95.2488 20.384 96.2168 20.176 97.3047 20.176C98.2808 20.176 99.1848 20.376 100.017 20.776C100.849 21.16 101.513 21.696 102.009 22.384C102.521 23.072 102.777 23.872 102.777 24.784H99.5848C99.5208 24.096 99.2648 23.616 98.8168 23.344C98.3688 23.056 97.8328 22.912 97.2088 22.912C96.4728 22.912 95.9128 23.064 95.5288 23.368C95.1448 23.656 94.9528 24.024 94.9528 24.472C94.9528 24.84 95.0968 25.128 95.3848 25.336C95.6888 25.544 96.0728 25.704 96.5368 25.816C97.0168 25.928 97.5448 26.032 98.1208 26.128C98.6968 26.208 99.2648 26.328 99.8248 26.488C100.401 26.632 100.929 26.848 101.409 27.136C101.889 27.408 102.273 27.784 102.561 28.264C102.849 28.728 102.993 29.336 102.993 30.088C102.993 30.936 102.761 31.688 102.297 32.344C101.833 32.984 101.177 33.488 100.329 33.856C99.4968 34.208 98.5128 34.384 97.3768 34.384C96.3208 34.384 95.3608 34.184 94.4967 33.784C93.6328 33.368 92.9368 32.816 92.4088 32.128C91.8968 31.424 91.6248 30.632 91.5928 29.752H94.8088ZM104.989 16H108.205V34H104.989V16ZM108.205 27.4L107.821 24.664C107.821 24.248 107.885 23.784 108.013 23.272C108.141 22.76 108.373 22.272 108.709 21.808C109.045 21.328 109.517 20.936 110.125 20.632C110.733 20.328 111.525 20.176 112.501 20.176C113.365 20.176 114.133 20.352 114.805 20.704C115.477 21.056 116.005 21.64 116.389 22.456C116.773 23.256 116.965 24.344 116.965 25.72V34H113.749V26.032C113.749 25.456 113.701 24.936 113.605 24.472C113.509 24.008 113.309 23.64 113.005 23.368C112.701 23.096 112.237 22.96 111.613 22.96C111.085 22.96 110.557 23.112 110.029 23.416C109.501 23.72 109.061 24.192 108.709 24.832C108.373 25.472 108.205 26.328 108.205 27.4ZM127.471 26.32H130.711V34H127.471V26.32ZM124.951 20.176C126.839 20.176 128.271 20.728 129.247 21.832C130.223 22.936 130.711 24.432 130.711 26.32H127.471C127.471 25.696 127.407 25.136 127.279 24.64C127.151 24.144 126.903 23.752 126.535 23.464C126.167 23.16 125.639 23.008 124.951 23.008C124.055 23.008 123.383 23.24 122.935 23.704C122.487 24.152 122.263 24.68 122.263 25.288H118.903C118.903 24.376 119.135 23.536 119.599 22.768C120.079 21.984 120.767 21.36 121.663 20.896C122.575 20.416 123.671 20.176 124.951 20.176ZM127.783 25.576L128.287 27.76C126.319 27.648 124.887 27.824 123.991 28.288C123.111 28.736 122.671 29.304 122.671 29.992C122.671 30.488 122.847 30.864 123.199 31.12C123.567 31.36 124.007 31.48 124.519 31.48C124.999 31.48 125.463 31.4 125.911 31.24C126.375 31.064 126.751 30.776 127.039 30.376C127.327 29.976 127.471 29.416 127.471 28.696L128.119 29.776C128.103 30.672 127.919 31.464 127.567 32.152C127.231 32.84 126.751 33.384 126.127 33.784C125.519 34.184 124.775 34.384 123.895 34.384C123.015 34.384 122.231 34.224 121.543 33.904C120.855 33.568 120.311 33.088 119.911 32.464C119.511 31.84 119.311 31.08 119.311 30.184C119.311 29.32 119.487 28.608 119.839 28.048C120.191 27.488 120.655 27.048 121.231 26.728C121.823 26.392 122.487 26.144 123.223 25.984C123.959 25.824 124.719 25.72 125.503 25.672C126.287 25.608 127.047 25.576 127.783 25.576Z" fill="white"/>
<path d="M132.307 30.496H135.787V34H132.307V30.496Z" fill="#FAD459"/>
</svg>
