<svg width="140" height="140" viewBox="0 0 140 140" fill="none" xmlns="http://www.w3.org/2000/svg">
<g clip-path="url(#clip0_580_47)">
<path d="M74.2387 2.812C73.3965 1.09118 71.6482 -1.71264e-06 69.7326 0C67.817 1.65026e-06 66.068 1.09212 65.2272 2.81247C57.0063 19.6246 49.5067 30.7901 40.1486 40.1482C30.7907 49.5061 19.6247 57.0062 2.81309 65.2266C1.09369 66.0669 0.000854431 67.8161 0.000854492 69.7317C0.000854401 71.6473 1.09203 73.396 2.81285 74.2375C34.9331 89.9487 49.5157 104.531 65.227 136.651C66.0687 138.373 67.8172 139.464 69.7328 139.464C71.6482 139.464 73.3965 138.372 74.2379 136.651C82.4588 119.839 89.9586 108.674 99.3168 99.3156C108.674 89.9574 119.84 82.4576 136.653 74.2368C137.159 73.9894 137.609 73.6644 137.995 73.2785C138.92 72.3539 139.465 71.0844 139.464 69.732C139.464 67.8163 138.373 66.0678 136.652 65.2261C104.532 49.5148 89.9491 34.9323 74.2387 2.812Z" fill="#03352C"/>
</g>
<defs>
<clipPath id="clip0_580_47">
<rect width="140" height="140" fill="white"/>
</clipPath>
</defs>
</svg>
