<svg width="240" height="263" viewBox="0 0 240 263" fill="none" xmlns="http://www.w3.org/2000/svg">
<path d="M191.164 177.247C187.113 178.578 182.655 177.051 179.622 173.679C177.718 171.563 175.627 169.498 173.272 167.945C170.059 165.83 167.103 167.052 165.846 170.671C165.336 172.13 164.826 173.707 164.851 175.222C164.988 182.922 165.314 190.621 165.541 198.321C165.663 202.344 165.8 206.369 165.781 210.392C165.772 212.106 165.1 214.078 163.233 214.06C161.905 214.048 160.412 212.784 159.335 211.73C158.579 210.996 158.147 209.698 158.019 208.6C157.612 205.11 157.521 201.585 157.117 198.094C156.597 193.642 155.956 189.197 155.201 184.779C155.085 184.101 154.056 183.585 153.449 182.994C152.911 183.637 152.254 184.222 151.875 184.947C151.545 185.579 151.57 186.384 151.377 187.097C149.629 193.593 148.052 200.145 146.026 206.55C145.155 209.31 143.541 211.911 141.857 214.303C141.176 215.271 139.291 216.12 138.177 215.899C136.363 215.538 135.903 213.594 136.223 211.88C136.69 209.381 137.415 206.933 138.04 204.469C139.633 198.185 141.26 191.91 142.794 185.61C143.068 184.484 142.953 183.261 143.015 182.085C142.772 182.008 142.533 181.93 142.29 181.855C141.242 183.744 140.069 185.573 139.176 187.533C136.416 193.59 133.781 199.7 131.066 205.779C130.282 207.533 128.891 208.588 126.944 208.122C124.887 207.633 124.617 205.891 125.062 204.177C125.904 200.923 126.67 197.609 127.949 194.517C130.117 189.287 132.752 184.25 134.973 179.043C135.502 177.795 135.169 176.184 135.231 174.74C133.968 175.344 132.419 175.664 131.495 176.6C127.516 180.635 123.745 184.873 119.847 188.989C118.628 190.276 117.156 192.159 115.299 190.889C113.314 189.53 114.459 187.334 115.479 185.825C118.789 180.931 122.003 175.919 125.823 171.443C128.48 168.325 130.375 165.093 131.364 161.188C132.652 156.071 134.313 151.149 137.623 146.837C138.908 145.17 139.795 142.821 139.947 140.715C140.498 132.934 140.918 125.125 140.918 117.329C140.918 107.803 140.364 98.2805 140.199 88.7545C139.919 72.8976 139.758 57.0347 139.546 41.1746C139.53 40.0235 139.496 38.8725 139.471 37.7214C139.188 25.1497 138.918 12.575 138.616 9.25864e-05H169.107C169.014 1.31924 168.905 2.63518 168.864 3.95433C168.351 20.2996 167.847 36.6449 167.371 52.9901C167.016 65.0641 166.69 77.1409 166.382 89.2148C165.996 104.089 165.697 118.959 165.249 133.827C165.115 138.394 166.898 141.922 170.199 144.887C172.031 146.532 174.007 148.091 175.509 150.01C177.715 152.826 180.226 155.691 181.371 158.97C182.805 163.071 184.908 166.076 188.688 168.067C190.131 168.826 191.618 169.657 192.772 170.776C195.246 173.175 194.424 176.174 191.164 177.247ZM161.049 163.403C159.304 158.217 155.207 154.991 150.951 151.992C150.562 151.715 149.433 151.957 149.013 152.352C146.316 154.847 143.581 157.333 141.142 160.074C139.4 162.037 138.88 164.597 139.238 167.254C139.897 172.163 144.863 174.279 148.826 171.345C149.28 171.009 149.735 170.673 150.17 170.35C150.481 170.49 150.727 170.552 150.917 170.695C154.031 173.012 156.411 173.308 158.788 171.656C161.058 170.076 162.135 166.62 161.049 163.403Z" fill="white" fill-opacity="0.2"/>
<path d="M76.8958 126.88C72.9697 128.109 68.0512 126.457 65.2948 123.362C63.4033 121.234 61.3377 119.131 58.9762 117.588C55.7562 115.484 52.7915 116.71 51.5814 120.335C50.9903 122.108 50.4397 124.024 50.4958 125.857C50.7632 134.882 51.283 143.898 51.6159 152.919C51.7185 155.61 51.7091 158.348 51.3236 161.002C51.1681 162.044 49.9206 163.578 49.0153 163.692C47.9017 163.836 46.3835 162.986 45.4905 162.106C44.6133 161.241 43.9972 159.85 43.8075 158.606C43.2694 155.059 43.0016 151.469 42.6316 147.895C42.218 143.838 41.9534 139.756 41.2969 135.737C41.1134 134.629 39.7571 133.715 38.9387 132.71C38.3664 133.811 37.576 134.856 37.2524 136.029C35.3174 142.976 33.7276 150.029 31.5158 156.889C30.5886 159.757 28.6939 162.451 26.7402 164.809C24.942 166.981 22.5124 166.029 21.9804 163.207C21.8188 162.346 21.8124 161.375 22.0301 160.532C23.1067 156.4 24.2732 152.297 25.4243 148.187C26.9299 142.827 28.4139 137.467 28.6659 131.879C28.3858 131.78 28.109 131.683 27.8319 131.584C26.687 133.823 25.452 136.023 24.419 138.31C21.843 143.997 19.3854 149.736 16.8158 155.427C15.9944 157.253 14.5137 158.32 12.448 157.778C10.211 157.19 10.2798 155.411 10.684 153.594C10.9359 152.471 11.0418 151.292 11.4618 150.237C13.7888 144.367 16.1845 138.521 18.5643 132.673C19.4602 130.473 20.4277 128.305 21.2649 126.083C21.4298 125.635 21.2959 124.677 21.0316 124.556C20.5339 124.335 19.7251 124.36 19.2521 124.637C18.3375 125.163 17.482 125.853 16.7539 126.622C13.2416 130.312 9.80069 134.066 6.29136 137.759C5.33934 138.761 4.34086 139.787 3.17108 140.488C2.54264 140.864 1.26092 140.898 0.732163 140.494C0.190826 140.08 -0.138876 138.835 0.0569475 138.129C0.523762 136.49 1.13349 134.797 2.08551 133.404C4.86349 129.338 7.53598 125.128 10.8243 121.498C14.1469 117.83 16.3309 113.829 17.4507 109.073C18.4711 104.73 20.1729 100.71 22.8234 97.0018C24.2419 95.0172 25.3152 92.3789 25.4614 89.9677C25.9592 81.7857 26.1737 73.5728 26.1272 65.3721C26.0682 55.0218 25.6949 44.6651 25.3681 34.3145C25.0071 22.8784 24.5687 11.4361 24.1206 1.5663e-06H55.1562C54.2042 17.0018 53.3144 34.0065 52.4621 51.0115C51.9737 60.7771 51.8369 70.5644 51.0684 80.3079C50.5922 86.2871 51.8617 91.1901 56.6776 94.9578C57.5177 95.6143 58.3981 96.2863 59.0359 97.1199C61.8077 100.747 65.3419 104.095 66.9875 108.192C68.7048 112.461 70.8172 115.659 74.8337 117.746C76.1964 118.456 77.5681 119.327 78.6292 120.422C81.0365 122.907 80.1748 125.857 76.8958 126.88ZM44.986 112.258C44.3482 108.062 41.6573 105.171 38.6177 102.614C33.7863 98.542 34.8067 98.6446 30.2647 102.512C28.3545 104.132 26.5657 106.08 25.3027 108.223C24.3226 109.885 23.9806 112.059 23.8467 114.035C23.688 116.331 24.9294 118.213 27.0793 119.122C29.1604 120.002 31.2512 119.778 33.0585 118.21C33.4224 117.892 33.8331 117.628 34.1379 117.401C35.5287 118.132 36.7482 119.112 38.1202 119.426C42.3138 120.378 45.6705 116.769 44.986 112.258Z" fill="white" fill-opacity="0.2"/>
<path d="M239.184 127.106C237.215 128.519 236.089 126.135 234.904 124.922C232.035 121.982 229.276 118.933 226.367 116.034C225.686 115.356 224.594 115.095 223.692 114.64C223.72 115.704 223.53 116.83 223.829 117.811C224.23 119.126 225.12 120.29 225.608 121.591C227.615 126.954 229.625 132.317 231.413 137.755C231.65 138.462 230.626 140.347 230.119 140.372C229.111 140.425 227.951 139.697 227.061 139.018C226.554 138.63 226.479 137.696 226.171 137.027C223.63 131.44 221.075 125.856 218.525 120.271C218.223 120.355 217.918 120.439 217.61 120.523C217.703 121.634 217.65 122.782 217.903 123.855C218.802 127.691 219.797 131.502 220.771 135.319C221.458 138.026 222.351 140.692 222.781 143.436C222.936 144.416 222.27 146.087 221.496 146.482C220.827 146.818 219.184 146.049 218.475 145.297C217.43 144.195 216.555 142.758 216.095 141.312C214.331 135.759 212.754 130.152 211.13 124.559C210.899 123.772 210.868 122.925 210.592 122.163C210.1 120.795 209.263 120.763 208.479 121.899C208.075 122.49 207.758 123.237 207.68 123.946C207.331 127.191 207.195 130.466 206.762 133.705C206.336 136.925 205.823 140.157 204.967 143.281C204.734 144.124 203.057 145.157 202.158 145.057C201.355 144.973 200.406 143.542 200.073 142.528C199.681 141.327 199.75 139.921 199.837 138.62C200.176 133.372 200.808 128.136 200.926 122.888C201.007 119.31 200.773 115.646 200.027 112.161C199.258 108.59 196.483 107.762 193.444 109.915C191.86 111.041 190.454 112.497 189.2 113.997C186.895 116.734 183.946 117.245 180.717 116.653C177.886 116.134 177.117 113.53 179.193 111.526C180.175 110.578 181.439 109.871 182.671 109.23C185.234 107.896 186.678 105.818 187.689 103.13C188.507 100.952 189.752 98.8518 191.183 97.0104C192.732 95.0131 194.654 93.2894 196.53 91.5754C199.175 89.1549 200.547 86.3208 200.388 82.6498C199.971 73.0461 199.694 63.4362 199.358 53.8292C198.733 35.888 198.111 17.9436 197.458 0.00237024H221.024C220.868 3.22845 220.741 6.45454 220.669 9.68385C220.296 26.7727 219.901 43.8616 219.624 60.9534C219.493 68.7467 219.58 76.5457 219.655 84.3422C219.689 87.5622 220.29 90.6108 221.929 93.5475C223.746 96.8049 224.922 100.41 226.543 103.786C227.868 106.555 229.259 109.323 230.939 111.887C233.322 115.517 236.09 118.896 238.501 122.511C239.386 123.84 240.973 125.821 239.184 127.106Z" fill="white" fill-opacity="0.2"/>
<path d="M124.806 105.684C124.567 105.603 124.346 105.504 124.14 105.373C123.273 104.826 122.691 103.83 121.953 103.059C119.343 100.327 116.764 97.5615 114.064 94.9203C113.448 94.3199 112.406 94.155 111.556 93.7847C111.537 94.7803 111.282 95.841 111.553 96.7463C111.951 98.0654 112.825 99.2319 113.336 100.526C115.317 105.557 117.29 110.594 119.15 115.671C119.663 117.068 119.928 118.788 118.011 119.41C116.157 120.017 115.127 118.757 114.433 117.204C112.458 112.784 110.507 108.344 108.491 103.939C107.72 102.25 106.799 100.632 105.943 98.9832C105.719 99.061 105.495 99.1387 105.271 99.2165C105.306 99.6955 105.278 100.19 105.389 100.648C106.702 106.067 108.065 111.474 109.347 116.9C109.854 119.043 110.32 121.218 110.52 123.402C110.582 124.092 109.866 125.231 109.232 125.495C108.588 125.76 107.384 125.439 106.818 124.935C105.928 124.145 105.072 123.078 104.715 121.967C102.699 115.652 100.869 109.284 98.8937 102.959C98.5827 101.961 97.8701 101.086 97.3446 100.153C96.7006 101.033 95.6489 101.839 95.4841 102.797C94.9802 105.772 94.8276 108.802 94.504 111.807C94.1772 114.887 93.9781 117.995 93.3933 121.025C93.0603 122.751 91.8844 124.379 89.8 124.08C87.6412 123.772 87.6566 121.759 87.7157 120.16C87.9025 114.908 88.3751 109.666 88.4935 104.415C88.5867 100.246 88.6925 96.0184 88.1138 91.9148C87.476 87.3883 84.1937 86.3805 80.5944 89.283C79.2007 90.4092 78.1461 91.9678 76.7338 93.0724C75.424 94.096 73.94 95.1132 72.3721 95.5519C69.146 96.4511 66.57 95.6265 66.1316 93.816C65.416 90.848 67.8614 90.036 69.6686 88.6207C71.6785 87.0528 74.2077 85.323 74.9543 83.1328C76.6592 78.1118 79.8231 74.4062 83.6715 71.1708C87.0437 68.3367 88.5061 64.9987 88.2135 60.5934C87.7282 53.2202 87.5321 45.8286 87.1776 38.4461C86.5617 25.6317 85.9426 12.8174 85.2706 0.00310616H108.84C108.361 11.7722 107.857 23.5441 107.611 35.3193C107.405 45.2466 107.424 55.1862 107.67 65.1135C107.732 67.6147 108.883 70.1504 109.829 72.5519C111.083 75.7251 112.921 78.6898 113.964 81.9224C115.143 85.5811 116.739 88.7791 119.271 91.7626C122.276 95.3 124.681 99.3658 127.167 103.317C127.254 103.457 127.304 103.625 127.319 103.812C127.444 105.143 126.069 106.117 124.806 105.684ZM106.678 77.6852C101.249 71.1647 98.546 71.2331 93.3975 78.043C92.9558 78.6279 92.5545 79.2531 92.209 79.9003C90.6875 82.7499 91.0018 86.1347 92.9245 87.8739C94.7695 89.5446 96.9626 89.3611 100.226 87.1428C100.836 87.5971 101.324 88.0358 101.881 88.3623C104.756 90.0515 108.277 88.4713 108.925 85.1798C109.49 82.3021 108.492 79.8661 106.678 77.6852Z" fill="white" fill-opacity="0.2"/>
<path d="M168.32 251.105C168.394 244.629 165.046 239.577 160.945 235.166C156.879 230.792 152.222 226.958 147.716 223.011C147.111 222.481 145.517 222.202 144.982 222.604C137.474 228.261 130.26 234.257 125.793 242.792C123.707 246.778 123.078 251.024 124.219 255.465C126.047 262.584 134.073 264.941 139.323 259.805C141.195 257.974 142.885 255.937 144.511 253.879C145.613 252.485 146.383 252.309 147.517 253.834C148.839 255.61 150.34 257.253 151.789 258.932C154.709 262.316 158.463 263.18 162.515 261.796C166.614 260.396 167.923 256.817 168.312 252.83C168.368 252.26 168.32 251.68 168.32 251.105Z" fill="white" fill-opacity="0.2"/>
<path d="M31.6753 211.465C33.4597 213.549 35.0089 215.433 36.6381 217.244C40.2269 221.236 44.4048 222.497 48.2133 220.801C51.634 219.277 53.9762 214.473 53.6729 209.729C53.4126 205.659 51.7885 202.109 49.5566 198.803C45.1294 192.246 39.2187 187.168 32.9493 182.488C32.3899 182.07 30.9642 182.087 30.4006 182.512C23.7579 187.518 17.4546 192.898 12.9693 200.048C10.3525 204.219 9.05239 208.732 10.0854 213.668C10.8119 217.141 12.4383 220.06 16.1477 221.043C20.042 222.075 23.4711 221.145 26.1572 218.017C27.9591 215.919 29.7221 213.787 31.6753 211.465Z" fill="white" fill-opacity="0.2"/>
<path d="M98.0278 156.281C99.7525 158.226 101.144 159.946 102.692 161.51C106.724 165.585 112.42 164.063 114.034 158.574C114.98 155.361 114.326 152.364 112.885 149.518C109.715 143.256 104.492 138.86 99.0076 134.766C98.5343 134.413 97.1426 134.593 96.6722 135.042C92.5966 138.939 88.4309 142.774 84.7102 146.996C82.276 149.758 81.3092 153.35 81.855 157.148C82.2638 159.992 83.4249 162.411 86.3042 163.43C89.2665 164.479 91.9987 163.457 94.1606 160.822C95.3514 159.371 96.5938 157.961 98.0278 156.281Z" fill="white" fill-opacity="0.2"/>
<path d="M213.78 173.691C215.099 175.219 216.234 176.501 217.332 177.815C219.266 180.131 221.738 181.022 224.595 180.164C227.28 179.358 228.263 177.021 228.708 174.501C229.269 171.326 228.445 168.234 226.457 165.926C222.895 161.791 218.916 158.006 214.988 154.202C214.554 153.782 212.975 153.827 212.509 154.27C208.779 157.812 204.959 161.306 201.631 165.211C199.06 168.226 197.916 171.986 199.3 176.043C200.966 180.932 206.341 182.087 209.901 178.308C211.186 176.944 212.32 175.44 213.78 173.691Z" fill="white" fill-opacity="0.2"/>
<path d="M149.932 165.961C151.327 167.515 151.848 168.51 152.661 168.906C153.891 169.504 155.548 170.277 156.605 169.875C157.658 169.474 158.737 167.755 158.824 166.544C158.938 164.952 158.497 162.999 157.572 161.725C155.91 159.437 153.798 157.441 151.675 155.546C151.143 155.072 149.499 155.039 148.977 155.498C146.838 157.375 144.64 159.319 143.054 161.64C142.043 163.119 141.587 165.344 141.734 167.165C141.982 170.239 145.306 171.288 147.6 169.178C148.48 168.369 149.043 167.214 149.932 165.961Z" fill="white" fill-opacity="0.2"/>
<path d="M34.1245 113.631C35.3472 114.909 36.0376 115.721 36.8203 116.432C39.0063 118.417 41.8354 117.764 42.6129 114.903C42.9713 113.585 43.0539 111.662 42.3412 110.682C40.2449 107.801 37.7265 105.219 35.262 102.625C34.9559 102.302 33.7012 102.34 33.357 102.683C31.0474 104.986 28.77 107.338 26.6969 109.851C26.0291 110.661 25.5645 112.108 25.7935 113.078C26.1413 114.55 26.8621 116.274 27.9977 117.135C29.4572 118.242 31.1383 117.369 32.3107 115.971C32.8876 115.283 33.4131 114.553 34.1245 113.631Z" fill="white" fill-opacity="0.2"/>
<path d="M218.123 110.702C218.609 110.834 218.949 110.818 219.131 110.748C219.134 110.746 219.162 110.734 219.212 110.697C219.266 110.657 219.333 110.6 219.408 110.522C219.561 110.365 219.721 110.156 219.863 109.923C220.006 109.69 220.116 109.457 220.181 109.258C220.251 109.041 220.242 108.949 220.243 108.959C219.86 106.594 219.348 104.208 218.256 102.59C217.251 101.103 216.404 100.06 215.657 99.401C214.912 98.744 214.366 98.5549 213.938 98.566C213.504 98.5774 212.951 98.7998 212.208 99.4987C211.559 100.11 210.84 101.014 210.013 102.25L209.651 102.8L209.472 103.088C208.591 104.549 207.943 106.382 207.767 108.088C207.733 108.412 207.863 109.014 208.177 109.649C208.325 109.948 208.494 110.214 208.661 110.418C208.793 110.578 208.898 110.67 208.965 110.716L209.019 110.749C209.071 110.774 209.332 110.818 209.946 110.582C210.499 110.369 211.101 110.025 211.655 109.691C211.645 109.697 211.68 109.678 211.749 109.578C211.818 109.478 211.892 109.338 211.979 109.146C212.068 108.951 212.148 108.752 212.248 108.511C212.342 108.285 212.453 108.03 212.581 107.789L212.841 107.301L213.392 107.261C213.781 107.233 214.172 107.203 214.563 107.174L215.204 107.128L215.514 107.69C215.664 107.964 215.797 108.254 215.914 108.517C216.037 108.793 216.139 109.032 216.251 109.265C216.488 109.757 216.664 109.988 216.801 110.083C217.178 110.343 217.658 110.575 218.123 110.702Z" fill="white" fill-opacity="0.2" stroke="#103E36" stroke-width="2"/>
<path d="M100.817 83.7253C101.272 84.5108 101.549 85.571 102.227 86.0126C103.082 86.5692 104.448 87.0808 105.258 86.7614C106.091 86.433 107.148 84.9615 107.003 84.2005C106.638 82.2819 106.104 80.0539 104.834 78.7089C99.6129 73.1779 100.688 73.278 95.5331 78.6653C94.2904 79.9642 93.6481 82.0635 93.3093 83.9014C93.1512 84.7592 94.1701 86.3653 95.0344 86.7269C95.8644 87.0744 97.2785 86.4233 98.2547 85.8833C98.8912 85.531 99.2042 84.5937 99.662 83.9182C100.047 83.8543 100.432 83.7898 100.817 83.7253Z" fill="white" fill-opacity="0.2"/>
</svg>
